<svg width="624" height="558" viewBox="0 0 624 558" fill="none" xmlns="http://www.w3.org/2000/svg">
    <path fill-rule="evenodd" clip-rule="evenodd" d="M503.947 566.867C505.31 561.428 530.288 461.699 506.496 369.941C506.496 369.941 538.836 395.081 538.75 559.25V648.89H-35V568.21C-35 568.21 -22.855 391.342 24.068 362.004C24.068 362.004 -23.228 465.662 -7.268 559.25C-7.13216 560.048 -6.98196 561.295 -6.8238 562.608C-6.50227 565.277 -6.1478 568.22 -5.814 568.22C-5.814 568.22 -5.441 563.792 -5.145 559.25C-3.338 532.006 4.837 435.301 24.938 413.938C24.938 413.938 4.647 523.897 21.008 559.25C25.779 570.037 24.039 559.25 24.039 559.25C24.393 531.069 28.075 427.087 62.135 381.666C62.135 381.666 36.564 492.858 58.912 559.251C59.2976 560.207 59.643 561.32 60.0087 562.499C60.5867 564.361 61.2157 566.388 62.135 568.221C62.135 568.221 62.469 563.841 63.024 559.251C65.979 534.857 75.331 454.666 75.331 413.939C75.331 413.939 92.677 507.365 89.168 559.251H89.55C94.293 525.151 113.705 378.577 104.668 323C104.668 323 117.233 373.365 115.607 527.484C117.577 497.41 123.63 457.229 141.34 434.47C141.34 434.47 122.148 521.48 137.553 559.251C137.889 560.074 138.24 561.243 138.607 562.465C139.43 565.207 140.334 568.221 141.34 568.221C141.34 568.221 142.124 563.889 143.367 559.251C149.984 534.647 170.046 451.96 158.935 389.01C158.935 389.01 181.636 431.123 175.325 559.251L175.067 568.221C175.07 568.221 175.109 567.737 175.182 566.831C176.174 554.535 183.431 464.588 192.471 454.666C192.471 454.666 192.136 509.68 195.177 559.261C195.233 560.207 195.29 561.776 195.347 563.339C195.436 565.792 195.525 568.231 195.607 568.231C195.607 568.231 195.836 563.861 196.295 559.261C199.48 527.341 213.594 399.624 236.678 381.666C236.678 381.666 216.539 502.603 226.398 559.251C226.545 560.095 226.695 561.373 226.852 562.701C227.166 565.359 227.504 568.221 227.88 568.221C227.88 568.221 229.238 563.774 231.409 559.251C241.277 538.615 268.415 478.4 266.016 444.73C266.016 444.73 285.094 481.411 282.157 557.673C282.157 557.673 309.172 478.476 282.464 413.939C282.464 413.939 309.038 438.17 309.679 501.809C315.684 451.711 327.15 382.803 346.686 355.273C346.686 355.273 314.423 471.152 327.619 553.284C327.619 553.284 361.852 490.974 346.686 459.409C346.686 459.409 367.216 478.476 361.355 554.737C361.355 554.737 390.693 499.007 368.689 413.939C368.689 413.939 389.546 453.824 389.526 520.341C392.91 481.105 399.241 427.049 409.76 400.742C409.76 400.742 404.529 513.523 415.124 559.26C415.333 560.159 415.546 561.49 415.764 562.854C416.183 565.482 416.622 568.23 417.094 568.23C417.094 568.23 418.127 563.888 419.676 559.26C425.844 540.89 440.542 488.956 434.69 425.681C434.69 425.681 449.503 460.526 440.542 536.185C448.058 491.289 465.146 409.693 493.356 384.62C493.356 384.62 449.264 482.454 458.577 559.26C458.673 560.052 458.776 561.276 458.884 562.567C459.109 565.252 459.358 568.23 459.629 568.23C459.629 568.23 463.493 564.099 468.685 559.26C482.542 546.331 506.171 515.301 493.366 460.881C493.366 460.881 512.338 496.358 504.554 559.26C504.554 559.26 503.961 566.585 503.894 567.082C503.901 567.051 503.919 566.979 503.947 566.867ZM1077.95 566.867C1079.31 561.423 1104.29 461.697 1080.5 369.941C1080.5 369.941 1112.84 395.081 1112.75 559.25V648.89H539V568.21C539 568.21 551.145 391.342 598.068 362.004C598.068 362.004 550.772 465.662 566.732 559.25C566.868 560.048 567.018 561.295 567.176 562.608C567.498 565.277 567.852 568.22 568.186 568.22C568.186 568.22 568.559 563.792 568.855 559.25C570.662 532.006 578.837 435.301 598.938 413.938C598.938 413.938 578.647 523.897 595.008 559.25C599.779 570.037 598.039 559.25 598.039 559.25C598.393 531.069 602.075 427.087 636.135 381.666C636.135 381.666 610.564 492.858 632.912 559.251C633.298 560.207 633.643 561.32 634.009 562.499C634.587 564.361 635.216 566.388 636.135 568.221C636.135 568.221 636.469 563.841 637.024 559.251C639.979 534.857 649.331 454.666 649.331 413.939C649.331 413.939 666.677 507.365 663.168 559.251H663.55C668.293 525.151 687.705 378.577 678.668 323C678.668 323 691.233 373.365 689.607 527.484C691.577 497.41 697.63 457.229 715.34 434.47C715.34 434.47 696.148 521.48 711.553 559.251C711.889 560.074 712.24 561.243 712.607 562.465C713.43 565.207 714.334 568.221 715.34 568.221C715.34 568.221 716.124 563.889 717.367 559.251C723.984 534.647 744.046 451.96 732.935 389.01C732.935 389.01 755.636 431.123 749.325 559.251L749.067 568.221C749.07 568.221 749.109 567.737 749.182 566.832C750.174 554.539 757.431 464.588 766.471 454.666C766.471 454.666 766.136 509.68 769.177 559.261C769.233 560.207 769.29 561.776 769.347 563.339C769.436 565.792 769.525 568.231 769.607 568.231C769.607 568.231 769.836 563.861 770.295 559.261C773.48 527.341 787.594 399.624 810.678 381.666C810.678 381.666 790.539 502.603 800.398 559.251C800.545 560.095 800.695 561.373 800.852 562.701C801.166 565.359 801.504 568.221 801.88 568.221C801.88 568.221 803.238 563.774 805.409 559.251C815.277 538.615 842.415 478.4 840.016 444.73C840.016 444.73 859.094 481.411 856.157 557.673C856.157 557.673 883.172 478.476 856.464 413.939C856.464 413.939 883.038 438.17 883.679 501.809C889.684 451.711 901.15 382.803 920.686 355.273C920.686 355.273 888.423 471.152 901.619 553.284C901.619 553.284 935.852 490.974 920.686 459.409C920.686 459.409 941.216 478.476 935.355 554.737C935.355 554.737 964.693 499.007 942.689 413.939C942.689 413.939 963.546 453.824 963.526 520.341C966.91 481.105 973.241 427.049 983.76 400.742C983.76 400.742 978.529 513.523 989.124 559.26C989.333 560.159 989.546 561.49 989.764 562.854C990.183 565.482 990.622 568.23 991.094 568.23C991.094 568.23 992.127 563.888 993.676 559.26C999.844 540.89 1014.54 488.956 1008.69 425.681C1008.69 425.681 1023.5 460.526 1014.54 536.185C1022.06 491.289 1039.15 409.693 1067.36 384.62C1067.36 384.62 1023.26 482.454 1032.58 559.26C1032.67 560.052 1032.78 561.276 1032.88 562.567C1033.11 565.252 1033.36 568.23 1033.63 568.23C1033.63 568.23 1037.49 564.099 1042.69 559.26C1056.54 546.331 1080.17 515.301 1067.37 460.881C1067.37 460.881 1086.34 496.358 1078.55 559.26C1078.55 559.26 1077.96 566.585 1077.89 567.082C1077.9 567.051 1077.92 566.979 1077.95 566.867Z" fill="url(#paint0_linear_913_829)"/>
    <path d="M569.683 472.469H551.322V541.465H569.683V472.469Z" fill="black"/>
    <path d="M605.22 485.615H586.858V554.612H605.22V485.615Z" fill="black"/>
    <path fill-rule="evenodd" clip-rule="evenodd" d="M558.413 522.467C546.807 522.467 539.864 523.59 537.399 540.178C536.318 547.46 538.494 551.936 542.121 554.57C542.854 551.539 544.749 544.996 546.007 542.916C547.184 550.827 544.815 552.456 546.037 556.555C550.337 557.958 555.526 557.883 560.271 556.774C572.499 553.913 579.434 555.727 579.434 540.178C579.434 524.671 570.019 522.467 558.413 522.467V522.467Z" fill="black"/>
    <path fill-rule="evenodd" clip-rule="evenodd" d="M592.476 537.25C580.463 537.25 573.276 538.413 570.722 555.59C569.605 563.125 571.855 567.758 575.615 570.482C576.37 567.34 578.331 560.572 579.634 558.417C580.855 566.601 578.398 568.299 579.664 572.535C584.12 573.986 589.486 573.91 594.401 572.761C607.051 569.797 614.231 571.679 614.231 555.59C614.231 539.528 604.49 537.25 592.476 537.25V537.25Z" fill="black"/>
    <path d="M432.422 472.469H414.06V541.465H432.422V472.469Z" fill="black"/>
    <path d="M467.958 485.615H449.597V554.612H467.958V485.615Z" fill="black"/>
    <path fill-rule="evenodd" clip-rule="evenodd" d="M421.151 522.467C409.545 522.467 402.595 523.59 400.137 540.178C399.049 547.46 401.225 551.936 404.86 554.57C405.593 551.539 407.48 544.996 408.746 542.916C409.923 550.827 407.547 552.456 408.775 556.555C413.076 557.958 418.265 557.883 423.009 556.774C435.23 553.913 442.166 555.727 442.166 540.178C442.166 524.671 432.758 522.467 421.151 522.467Z" fill="black"/>
    <path fill-rule="evenodd" clip-rule="evenodd" d="M455.215 537.25C443.202 537.25 436.007 538.413 433.461 555.59C432.343 563.125 434.593 567.758 438.354 570.482C439.109 567.34 441.07 560.572 442.373 558.417C443.587 566.601 441.137 568.299 442.402 572.535C446.851 573.986 452.225 573.91 457.132 572.761C469.79 569.797 476.969 571.679 476.969 555.59C476.969 539.528 467.228 537.25 455.215 537.25V537.25Z" fill="black"/>
    <path fill-rule="evenodd" clip-rule="evenodd" d="M443.498 223.138C438.983 225.649 434.208 227.607 428.894 227.676C422.328 229.038 416.651 234.348 415.926 240.631C406.325 241.493 399.397 251.731 402.306 260.135C376.348 266.698 355.148 283.232 337.051 300.984C319.619 316.341 309.849 339.02 312.402 361.275C314.904 390.175 337.154 416.085 365.874 427.014C363.972 430.99 364.379 436.088 367.399 439.497C361.951 444.903 363.18 454.758 370.108 458.597C367.983 465.078 370.47 472.804 377.436 475.706C379.538 480.469 383.949 484.13 386.185 488.859C388.59 491.658 392.077 493.889 396.014 494.183C398.413 499.98 406.044 503.114 412.41 501.608C415.378 508.719 425.963 512.065 432.884 507.768C440.411 508.808 447.554 511.894 455.104 512.407C458.761 511.627 462.75 509.951 465.941 512.681C471.277 516.103 478.457 514.775 483.18 511.292C487.828 509.677 491.781 512.729 495.933 513.639C505.112 514.522 514.416 515.391 523.55 514.207C527.969 515.063 532.358 514.337 535.978 511.826C539.878 509.848 543.402 511.853 546.666 513.749C551.455 515.343 557.288 514.686 561.055 511.381C565.186 511.463 569.16 509.451 572.388 512.866C578.339 515.295 586.266 513.673 589.967 508.575C595.852 512.23 604.386 511.381 608.887 506.235C613.076 504.558 617.887 503.819 620.7 500.082C625.156 496.168 633.113 497.475 635.852 491.637C638.428 488.359 644.12 488.654 646.163 484.589C649.109 481.427 649.02 476.924 649.109 473.242C650.589 469.656 653.335 467.473 656.836 465.741C661.255 461.745 663.128 454.819 659.523 449.851C661.907 444.663 668.627 439.976 665.519 433.686C663.224 427.466 664.816 420.15 660.722 414.497C664.712 409.597 664.764 402.836 660.67 397.991C659.945 391.407 656.622 384.878 651.285 380.218C651.914 374.504 650.093 368.139 643.949 365.614C639.605 363.924 640.915 358.353 636.784 356.054C632.003 353.015 627.836 349.354 623.735 345.597C620.441 339.362 611.529 337.911 605.119 340.526C602.151 335.872 596.784 332.676 590.915 332.957C586.888 329.966 583.394 325.593 577.547 326.072C574.009 324.991 570.056 329.261 567.761 327.653C563.476 323.814 556.622 322.739 551.248 325.148C547.806 324.087 544.719 321.576 540.907 322.089C538.605 318.729 537.998 314.459 535.008 311.358C534.386 307.451 539.878 305.316 539.456 301.127C541.285 297.582 536.562 292.97 541.018 290.89C547.473 283.485 544.194 270.126 533.779 267.601C530.87 264.179 529.205 259.197 524.32 257.911C522.069 253.476 520.915 248.138 515.667 245.729C511.825 242.937 505.711 244.443 503.106 240.117C500.026 237.955 496.362 236.395 492.447 236.312C489.146 229.421 479.938 225.749 472.158 227.669C467.532 224.032 460.929 222.794 455.134 224.485C451.544 222.851 447.384 222.866 443.498 223.138V223.138Z" fill="black"/>
    <path fill-rule="evenodd" clip-rule="evenodd" d="M369.567 280.891C397.177 264.275 415.667 257.267 428.746 275.834C437.946 288.898 420.863 311.146 393.261 327.769C365.652 344.385 341.211 354.979 332.01 341.915C322.809 328.85 341.966 297.514 369.567 280.891V280.891Z" fill="#DEDEDE"/>
    <path fill-rule="evenodd" clip-rule="evenodd" d="M538.243 325.278C533.394 325.34 533.091 332.621 527.998 330.89C507.11 330.288 486.163 327.94 465.274 329.268C429.982 333.237 399.989 357.402 386.214 387.082C380.981 397.956 377.828 409.625 376.629 421.471C367.732 422.271 364.134 434.603 371.381 439.353C367.902 442.562 365.245 447.161 367.606 451.699C368.191 454.812 373.024 456.612 373.972 458.104C369.908 463.504 373.231 472.359 380.352 473.673C380.197 477.752 384.364 480.311 386.503 483.076C387.347 488.038 392.647 491.952 398.072 491.617C399.442 497.899 408.302 501.253 414.216 498.159C415.415 505.667 426 509.875 432.373 504.852C437.495 506.317 442.869 506.734 447.939 508.151C452.069 510.553 456.91 510.067 460.922 507.85C465.896 508.37 470.167 513.632 475.718 511.737C479.464 511.463 481.122 506.673 485.178 508.472C489.39 507.425 492.143 508.904 495.4 510.991C501.721 511.703 508.139 511.354 514.445 512.277C518.694 512.798 522.995 509.992 527.258 511.997C531.825 512.414 534.416 507.562 538.938 508.616C542.98 506.255 544.527 510.464 548.006 511.367C552.24 512.715 557.495 511.655 560.315 508.322C563.883 510.553 568.62 504.941 570.722 508.794C576.222 513.372 586.548 511.429 588.901 504.832C593.15 507.309 598.924 510.04 603.55 506.762C606.17 504.394 608.413 501.944 612.402 502.313C617.769 500.815 619.871 494.737 625.918 494.683C630.641 494.149 633.676 490.932 635.422 487.107C642.721 487.346 648.487 479.237 645.178 473.119C648.813 471.702 647.428 466.2 651.033 465.954C657.562 463.825 661.137 455.319 656.303 450.234C656.577 446.313 659.834 444.506 661.958 441.618C663.949 438.422 663.572 434.104 661.137 431.182C662.439 427.137 659.745 423.113 660.167 418.993C658.42 416.085 655.289 413.827 659.545 411.377C662.114 407.305 661.041 401.508 656.977 398.613C658.753 393.467 654.334 388.677 651.84 384.434C648.072 382.716 647.243 379.917 648.465 376.475C648.709 371.137 642.817 367.236 638.45 366.148C638.887 361.303 635.008 356.382 629.819 355.451C628.331 351.017 621.906 350.408 620.552 345.802C616.718 340.984 609.072 341.046 604.075 343.804C601.129 341.169 599.812 336.262 594.697 336.166C590.878 336.159 587.051 335.633 585.541 331.971C581.122 327.53 572.358 327.708 568.383 332.484C565.504 329.275 562.195 325.99 557.214 326.455C552.773 327.044 550.167 329.973 546.814 326.065C544.253 324.649 541.077 324.703 538.243 325.278V325.278ZM541.699 327.475C537.458 327.475 534.083 330.274 533.387 333.887L476.355 331.287C423.579 331.287 382.506 375.421 379.279 423.928C379.123 423.921 378.997 423.866 378.842 423.866C374.097 423.866 370.219 427.315 370.219 431.551C370.219 434.432 372.084 436.821 374.719 438.135C374.586 438.669 374.342 439.182 374.342 439.75C374.342 440.222 374.564 440.633 374.653 441.077C371.729 442.302 369.656 444.882 369.656 447.955C369.656 452.184 373.476 455.634 378.213 455.634C378.546 455.634 378.835 455.49 379.153 455.463C379.153 455.524 379.094 455.572 379.094 455.634C379.094 456.202 379.331 456.715 379.464 457.249C376.829 458.563 374.971 460.951 374.971 463.832C374.971 468.068 378.783 471.517 383.527 471.517H383.653C383.513 472.058 383.276 472.551 383.276 473.132C383.276 476.588 385.874 479.456 389.397 480.414C389.345 480.742 389.212 481.05 389.212 481.393C389.212 485.622 393.032 489.016 397.769 489.016C398.775 489.016 399.686 488.838 400.581 488.551C400.567 488.722 400.456 488.845 400.456 489.016C400.456 493.246 404.275 496.695 409.012 496.695C411.336 496.695 413.402 495.839 414.949 494.505C415.689 494.881 416.459 495.148 417.325 495.312C417.221 495.778 417.006 496.209 417.006 496.695C417.006 500.931 420.892 504.38 425.63 504.38C428.198 504.38 430.426 503.319 432.003 501.725C433.402 502.614 435.023 503.285 436.873 503.285C437.747 503.285 438.516 503.039 439.308 502.82C440.841 504.093 442.928 504.9 445.185 504.9C446.081 504.9 446.866 504.667 447.68 504.435C449.257 506.036 451.485 507.097 454.053 507.097C456.725 507.097 458.975 505.92 460.552 504.209C462.025 505.276 463.816 505.995 465.859 505.995C465.948 505.995 466.022 505.94 466.111 505.94C467.665 507.904 470.086 509.287 472.98 509.287C476.629 509.287 479.73 507.247 480.974 504.38C482.41 505.338 484.112 505.995 486.037 505.995C488.05 505.995 489.819 505.304 491.285 504.264C492.639 506.912 495.556 508.767 499.027 508.767C500.219 508.767 501.374 508.52 502.402 508.13C503.69 508.821 505.171 509.287 506.777 509.287C508.257 509.287 509.56 508.897 510.774 508.308C512.18 509.198 513.794 509.869 515.644 509.869C518.02 509.869 520.152 508.999 521.707 507.617C523.157 508.616 524.912 509.287 526.888 509.287C530.167 509.287 532.943 507.596 534.386 505.188C535.533 505.694 536.77 505.995 538.139 505.995C540.308 505.995 542.247 505.222 543.757 504.031C544.904 507.07 547.969 509.287 551.751 509.287C555.03 509.287 557.798 507.596 559.249 505.188C560.396 505.694 561.633 505.995 562.995 505.995C566.022 505.995 568.59 504.524 570.123 502.416C570.848 505.995 574.208 508.767 578.428 508.767C582.943 508.767 586.518 505.612 586.858 501.663C587.754 501.951 588.664 502.183 589.671 502.183C590.115 502.183 590.493 502.012 590.922 501.951C592.462 504.031 594.986 505.475 597.983 505.475C602.062 505.475 605.289 502.874 606.163 499.473C607.11 499.795 608.146 499.986 609.227 499.986C612.987 499.986 616.126 497.797 617.28 494.792C619.382 494.436 621.144 493.471 622.402 492.021C622.943 492.116 623.461 492.308 624.031 492.308C628.768 492.308 632.587 488.859 632.587 484.63C632.587 484.486 632.536 484.363 632.528 484.226C633.239 484.39 633.942 484.63 634.712 484.63C639.449 484.63 643.268 481.235 643.268 477.006C643.268 475.213 642.484 473.632 641.337 472.325C644.194 471.079 646.207 468.54 646.207 465.509C646.207 464.838 646.015 464.222 645.83 463.606C646.274 463.668 646.681 463.832 647.14 463.832C651.884 463.832 655.704 460.383 655.704 456.154C655.704 453.923 654.601 452.013 652.891 450.61C653.853 449.372 654.512 447.955 654.512 446.333C654.512 445.601 654.231 444.93 654.016 444.253C657.687 443.384 660.448 440.585 660.448 437.033C660.448 434.877 659.434 432.941 657.828 431.551C658.354 430.552 658.702 429.437 658.702 428.26C658.702 426.624 657.991 425.166 657.014 423.928C657.266 423.209 657.51 422.463 657.51 421.676C657.51 419.171 656.037 417.064 653.949 415.667C653.949 414.75 653.72 413.881 653.387 413.067C656.14 411.787 658.072 409.324 658.072 406.367C658.072 403.383 656.118 400.817 653.328 399.551C654.009 398.456 654.512 397.252 654.512 395.917C654.512 393.556 653.276 391.544 651.388 390.141C651.004 387.205 648.857 384.803 645.83 383.845C645.526 382.689 645.023 381.614 644.209 380.724C645.03 379.547 645.644 378.288 645.644 376.796C645.644 372.567 641.825 369.118 637.088 369.118C636.052 369.118 635.067 369.337 634.149 369.638C634.105 369.583 634.009 369.57 633.964 369.522C634.912 368.283 635.585 366.914 635.585 365.306C635.585 361.248 631.995 358.011 627.525 357.737C626.762 354.486 623.809 352.036 620.034 351.728C619.782 347.698 616.177 344.454 611.596 344.454C609.227 344.454 607.095 345.316 605.541 346.705C604.497 346.308 603.305 346.13 602.106 346.13C601.544 346.13 601.07 346.329 600.545 346.418C600.545 346.315 600.604 346.233 600.604 346.13C600.604 341.894 596.784 338.445 592.047 338.445C590.974 338.445 589.938 338.644 588.983 338.965C587.998 337.939 586.77 337.159 585.297 336.714C584.194 333.621 581.077 331.342 577.243 331.342C573.905 331.342 571.04 333.073 569.619 335.557C568.827 335.345 568.057 335.153 567.184 335.153C566.74 335.153 566.355 335.331 565.933 335.386C565.171 331.848 561.869 329.145 557.687 329.145C554.245 329.145 551.314 330.986 549.945 333.593C549.116 330.13 545.822 327.475 541.699 327.475V327.475Z" fill="black"/>
    <path fill-rule="evenodd" clip-rule="evenodd" d="M541.699 327.475C537.458 327.475 534.083 330.274 533.387 333.887L476.355 331.287C423.579 331.287 382.506 375.421 379.279 423.928C379.123 423.921 378.997 423.866 378.842 423.866C374.097 423.866 370.219 427.315 370.219 431.551C370.219 434.432 372.084 436.821 374.719 438.135C374.586 438.669 374.342 439.182 374.342 439.75C374.342 440.222 374.564 440.633 374.653 441.078C371.729 442.302 369.656 444.883 369.656 447.955C369.656 452.185 373.476 455.634 378.213 455.634C378.546 455.634 378.835 455.49 379.153 455.463C379.153 455.524 379.094 455.572 379.094 455.634C379.094 456.202 379.331 456.715 379.464 457.249C376.829 458.563 374.971 460.951 374.971 463.832C374.971 468.068 378.783 471.517 383.527 471.517H383.653C383.513 472.058 383.276 472.551 383.276 473.133C383.276 476.589 385.874 479.456 389.397 480.414C389.345 480.743 389.212 481.051 389.212 481.393C389.212 485.622 393.032 489.016 397.769 489.016C398.775 489.016 399.686 488.838 400.582 488.551C400.567 488.722 400.456 488.845 400.456 489.016C400.456 493.246 404.275 496.695 409.012 496.695C411.337 496.695 413.402 495.839 414.949 494.505C415.689 494.881 416.459 495.148 417.325 495.312C417.221 495.778 417.006 496.209 417.006 496.695C417.006 500.931 420.892 504.38 425.63 504.38C428.198 504.38 430.426 503.319 432.003 501.725C433.402 502.614 435.023 503.285 436.873 503.285C437.747 503.285 438.516 503.039 439.308 502.82C440.841 504.093 442.928 504.9 445.186 504.9C446.081 504.9 446.866 504.667 447.68 504.435C449.257 506.036 451.485 507.097 454.053 507.097C456.725 507.097 458.975 505.92 460.552 504.209C462.025 505.277 463.816 505.995 465.859 505.995C465.948 505.995 466.022 505.94 466.111 505.94C467.665 507.904 470.086 509.287 472.98 509.287C476.629 509.287 479.73 507.247 480.974 504.38C482.41 505.338 484.112 505.995 486.037 505.995C488.05 505.995 489.819 505.304 491.285 504.264C492.639 506.912 495.556 508.767 499.027 508.767C500.219 508.767 501.374 508.52 502.402 508.13C503.69 508.821 505.171 509.287 506.777 509.287C508.257 509.287 509.56 508.897 510.774 508.308C512.18 509.198 513.794 509.869 515.644 509.869C518.02 509.869 520.152 508.999 521.707 507.617C523.157 508.616 524.912 509.287 526.888 509.287C530.167 509.287 532.943 507.597 534.386 505.188C535.533 505.694 536.77 505.995 538.139 505.995C540.308 505.995 542.247 505.222 543.757 504.031C544.904 507.07 547.969 509.287 551.751 509.287C555.03 509.287 557.798 507.597 559.249 505.188C560.397 505.694 561.633 505.995 562.995 505.995C566.022 505.995 568.59 504.524 570.123 502.416C570.848 505.995 574.209 508.767 578.428 508.767C582.943 508.767 586.518 505.612 586.858 501.663C587.754 501.951 588.664 502.183 589.671 502.183C590.115 502.183 590.493 502.012 590.922 501.951C592.462 504.031 594.986 505.475 597.983 505.475C602.062 505.475 605.289 502.874 606.163 499.473C607.11 499.795 608.146 499.987 609.227 499.987C612.987 499.987 616.126 497.797 617.28 494.792C619.382 494.436 621.144 493.471 622.402 492.021C622.943 492.116 623.461 492.308 624.031 492.308C628.768 492.308 632.588 488.859 632.588 484.63C632.588 484.486 632.536 484.363 632.528 484.226C633.239 484.39 633.942 484.63 634.712 484.63C639.449 484.63 643.268 481.235 643.268 477.006C643.268 475.213 642.484 473.632 641.337 472.325C644.194 471.079 646.207 468.541 646.207 465.509C646.207 464.838 646.015 464.222 645.83 463.606C646.274 463.668 646.681 463.832 647.14 463.832C651.884 463.832 655.704 460.383 655.704 456.154C655.704 453.923 654.601 452.013 652.891 450.611C653.853 449.372 654.512 447.955 654.512 446.333C654.512 445.601 654.231 444.93 654.016 444.253C657.687 443.384 660.448 440.585 660.448 437.033C660.448 434.877 659.434 432.941 657.828 431.551C658.354 430.552 658.702 429.437 658.702 428.26C658.702 426.624 657.991 425.166 657.014 423.928C657.266 423.209 657.51 422.463 657.51 421.676C657.51 419.171 656.037 417.064 653.949 415.668C653.949 414.75 653.72 413.881 653.387 413.067C656.14 411.787 658.072 409.324 658.072 406.367C658.072 403.383 656.118 400.817 653.328 399.551C654.009 398.456 654.512 397.252 654.512 395.917C654.512 393.556 653.276 391.544 651.388 390.141C651.004 387.205 648.857 384.803 645.83 383.845C645.526 382.689 645.023 381.614 644.209 380.725C645.03 379.547 645.645 378.288 645.645 376.796C645.645 372.567 641.825 369.118 637.088 369.118C636.052 369.118 635.067 369.337 634.149 369.638C634.105 369.583 634.009 369.57 633.964 369.522C634.912 368.283 635.585 366.914 635.585 365.306C635.585 361.248 631.995 358.011 627.525 357.737C626.762 354.486 623.809 352.036 620.034 351.729C619.782 347.698 616.177 344.454 611.596 344.454C609.227 344.454 607.095 345.316 605.541 346.705C604.497 346.308 603.305 346.131 602.106 346.131C601.544 346.131 601.07 346.329 600.545 346.418C600.545 346.315 600.604 346.233 600.604 346.131C600.604 341.894 596.784 338.445 592.047 338.445C590.974 338.445 589.938 338.644 588.983 338.965C587.998 337.939 586.77 337.159 585.297 336.714C584.194 333.621 581.078 331.342 577.243 331.342C573.905 331.342 571.041 333.073 569.619 335.557C568.827 335.345 568.058 335.154 567.184 335.154C566.74 335.154 566.355 335.331 565.933 335.386C565.171 331.848 561.869 329.145 557.687 329.145C554.246 329.145 551.314 330.986 549.945 333.593C549.116 330.13 545.822 327.475 541.699 327.475V327.475Z" fill="url(#paint1_radial_913_829)"/>
    <path fill-rule="evenodd" clip-rule="evenodd" d="M539.567 330.623C536.325 332.409 535.23 338.562 530.056 336.461C508.931 335.824 487.769 333.6 466.629 334.627C434.704 337.898 407.584 359.188 393.609 385.221C387.177 397.43 383.505 410.747 382.225 424.249C379.915 427.623 372.832 426.809 373.113 431.948C374.727 435.083 378.82 437.539 377.228 441.577C375.63 444.561 370.493 446.771 373.505 450.597C376.059 453.348 383.409 452.568 382.158 457.659C380.715 460.506 375.615 462.806 381.559 463.839C384.889 466.837 388.457 470.546 393.698 469.43C397.784 467.897 401.174 470.169 405.171 470.423C409.434 469.601 413.365 468.554 417.265 471.004C421.729 472.435 425.674 469.985 429.249 468.116C434.364 469.04 440.152 472.736 444.771 468.575C447.525 465.947 451.04 462.32 455.274 464.907C459.908 466.364 463.276 461.588 467.451 462.552C471.233 464.825 472.365 470.128 477.702 470.279C482.906 471.449 487.532 468.109 490.433 464.599C495.4 463.476 501.847 467.199 505.637 462.327C507.88 458.843 513.979 459.028 513.964 463.764C517.517 471.757 532.499 471.408 534.408 462.58C534.675 458.706 538.731 457.269 542.314 458.549C548.531 458.166 551.203 465.584 557.724 464.113C562.832 463.661 566.251 459.767 567.784 455.641C571.966 453.074 577.658 456.838 581.662 453.252C584.904 450.638 586.288 446.217 590.974 445.622C594.164 443.014 598.013 441.646 602.247 442.049C607.813 441.201 611.188 436.034 611.248 431.189C614.408 427.233 620.685 431.312 624.26 427.63C629.642 424.325 629.59 417.084 625.911 412.773C626.244 407.763 634.904 406.579 633.268 400.728C632.661 397.32 635.474 393.453 639.56 394.87C642.847 394.48 648.702 391.921 647.325 388.41C644.379 385.754 639.242 382.059 642.454 377.884C643.431 373.327 637.71 370.918 633.705 372.177C627.954 370.233 635.933 363.493 629.975 361.604C626.007 360.529 624.238 356.971 621.174 355.198C617.147 353.877 616.792 349.142 613.424 347.54C608.864 346.692 604.756 351.448 600.315 348.478C596.222 347.253 597.547 340.676 592.277 341.532C586.052 342.524 582.817 336.974 578.583 334.154C573.446 333.073 570.656 340.793 565.274 337.699C562.018 336.002 561.129 330.657 556.311 331.93C553.713 333.908 548.701 338.206 546.622 333.443C545.6 330.828 542.284 329.891 539.567 330.623V330.623Z" fill="url(#paint2_radial_913_829)"/>
    <path fill-rule="evenodd" clip-rule="evenodd" d="M404.245 262.427C387.036 266.369 371.81 275.594 358.102 285.668C343.209 297.596 329.752 313.069 326.799 331.56C325.556 340.621 332.743 350.688 343.328 350.25C357.125 350.661 369.538 343.667 381.225 337.72C401.884 326.695 423.054 313.008 432.698 292.046C436.177 283.3 432.958 273.158 424.949 267.532C419.382 262.995 411.507 261.202 404.245 262.427V262.427ZM369.567 280.891C397.177 264.275 415.667 257.267 428.746 275.834C437.946 288.898 420.863 311.146 393.261 327.769C365.652 344.385 341.211 354.979 332.01 341.915C322.809 328.85 341.966 297.514 369.567 280.891V280.891Z" fill="black"/>
    <path fill-rule="evenodd" clip-rule="evenodd" d="M447.643 254.961C425.319 256.679 403.964 266.704 388.857 281.931C354.63 287.139 323.453 312.392 318.561 344.899C313.439 373.853 331.255 403.438 358.502 417.501C395.393 437.786 447.45 431.332 475.585 400.769C489.212 386.658 495.578 367.523 494.534 348.772C494.852 324.984 505.689 311.762 492.417 277.346C486.695 262.523 470.189 254.858 454.623 254.804C452.299 254.742 449.967 254.804 447.643 254.961Z" fill="#EED6B1"/>
    <path fill-rule="evenodd" clip-rule="evenodd" d="M447.643 254.961C425.319 256.679 403.964 266.704 388.857 281.931C354.63 287.139 323.453 312.392 318.561 344.899C313.439 373.853 331.255 403.438 358.502 417.501C395.393 437.786 447.45 431.332 475.585 400.769C489.212 386.658 495.578 367.523 494.534 348.772C494.852 324.984 505.689 311.762 492.417 277.346C486.695 262.523 470.189 254.858 454.623 254.804C452.299 254.742 449.967 254.804 447.643 254.961Z" fill="url(#paint3_radial_913_829)"/>
    <path fill-rule="evenodd" clip-rule="evenodd" d="M495.119 321.904C494.949 331.095 494.675 340.3 494.556 349.449C495.6 368.208 489.19 387.376 475.563 401.488C455.282 423.524 422.617 432.824 392.106 428.807C406.518 437.266 424.282 442.439 443.705 442.439C491.233 442.439 529.79 412.41 529.79 375.38C529.79 353.446 516.037 334.141 495.119 321.904V321.904Z" fill="url(#paint4_linear_913_829)"/>
    <path fill-rule="evenodd" clip-rule="evenodd" d="M403.572 270.845C401.499 271.036 398.938 271.912 396.451 273.391C391.647 276.237 388.798 280.323 389.826 282.746C393.668 282.486 398.398 280.953 403.076 278.181C405 277.038 406.644 275.738 408.198 274.431C408.361 273.644 408.287 272.946 407.946 272.35C407.265 271.16 405.652 270.66 403.572 270.845V270.845Z" fill="black"/>
    <path fill-rule="evenodd" clip-rule="evenodd" d="M425.245 276.272C420.53 276.128 415.844 279.529 414.926 284.155C414.875 285.203 415.726 286.017 416.392 286.729C417.428 287.673 418.576 288.617 419.967 288.966C424.504 289.295 429.168 289.747 433.32 291.718C434.512 291.327 434.134 289.836 433.712 288.994C433.017 286.818 433.505 284.416 434.63 282.465C435.074 281.315 433.801 280.508 433.239 279.659C431.211 277.497 428.228 276.238 425.245 276.272V276.272Z" fill="black"/>
    <path fill-rule="evenodd" clip-rule="evenodd" d="M447.621 252.224C424.838 254.133 403.12 264.077 387.406 279.406C351.61 285.134 319.427 312.542 315.333 346.664C310.737 379.835 334.667 412.855 367.813 424.804C406.636 440.332 456.932 429.792 482.003 397.553C494.282 382.764 498.243 363.629 497.754 345.343C499.123 327.331 505.037 309.025 499.56 291.074C497.058 277.695 490.722 263.454 476.718 257.226C467.85 252.703 457.591 251.69 447.621 252.224V252.224ZM447.643 254.961C425.319 256.679 403.964 266.705 388.857 281.931C354.63 287.139 323.453 312.392 318.561 344.899C313.439 373.854 331.255 403.438 358.502 417.502C395.393 437.786 447.45 431.332 475.585 400.769C489.212 386.658 495.578 367.523 494.534 348.772C494.852 324.984 505.689 311.762 492.417 277.346C486.696 262.523 470.189 254.858 454.623 254.804C452.299 254.742 449.967 254.804 447.643 254.961Z" fill="black"/>
    <path fill-rule="evenodd" clip-rule="evenodd" d="M447.828 228.278C442.114 227.033 439.486 234.294 434.638 232.542C427.243 231.515 419.197 238.386 422.025 245.366C421.655 246.715 414.823 244.73 412.506 247.392C406.066 250.554 405.43 259.799 411.581 263.529C416.673 268.025 424.445 264.528 428.761 263.385C433.912 268.614 441.285 262.523 445.933 267.033C450.656 269.743 456.089 264.857 458.731 270.222C462.328 272.953 467.332 271.762 468.191 276.792C470.315 280.658 476.999 280.871 479.434 281.473C479.316 288.179 487.613 293.223 494.305 291.061C496.17 297.103 504.186 300.053 510.293 297.76C509.686 306.301 521.832 311.119 529.005 306.541C536.533 303.543 533.942 293.723 531.418 290.664C537.776 288.864 541.263 281.076 536.895 276.039C534.238 271.125 525.978 273.719 526.733 267.491C525.6 263.379 519.368 262.222 517.34 260.6C519.856 253.25 510.219 246.441 502.861 248.952C501.122 243.505 494.112 240.186 488.309 242.027C487.924 234.348 477.495 230.16 470.626 233.821C467.317 229.147 460.041 227.553 454.823 230.413C452.765 229.127 450.337 228.264 447.828 228.278V228.278Z" fill="url(#paint5_radial_913_829)"/>
    <path fill-rule="evenodd" clip-rule="evenodd" d="M444.823 225.597C440.456 226.738 437.236 231.084 432.328 229.845C425.06 230.016 418.102 236.189 418.679 243.067C407.991 242.314 400.056 255.146 406.947 263.071C411.359 268.949 420.5 269.77 426.984 266.616C431.766 268.525 436.851 268.237 441.914 268.32C445.459 270.044 449.323 271.208 453.446 270.4C456.903 271.023 459.094 274.41 462.906 275.095C466.414 277.168 467.14 281.856 471.884 282.636C477.317 282.191 477.191 286.647 480.012 289.637C483.128 292.819 487.954 294.722 492.61 294.12C495.326 299.157 501.906 301.88 507.828 301.093C510.656 312.864 531.603 314.493 536.037 302.955C537.547 299.417 536.955 295.29 535.237 291.896C544.734 287.324 543.254 271.954 532.269 270.051C528.124 268.374 529.612 262.564 524.682 261.353C520.145 260.34 520.641 256.59 519.368 253.332C516.688 248.419 510.582 245.127 504.616 245.914C501.943 241.329 496.103 238.468 490.5 238.899C488.243 231.871 478.775 228.059 471.514 230.625C467.458 226.574 460.426 225.181 454.949 227.395C451.921 225.731 448.242 225.498 444.823 225.597V225.597ZM447.828 228.278C442.114 227.033 439.486 234.294 434.638 232.542C427.243 231.515 419.197 238.386 422.025 245.366C421.655 246.715 414.823 244.73 412.506 247.392C406.066 250.554 405.43 259.799 411.581 263.529C416.673 268.025 424.445 264.528 428.761 263.385C433.912 268.614 441.285 262.523 445.933 267.033C450.656 269.743 456.089 264.857 458.731 270.222C462.328 272.953 467.332 271.762 468.191 276.792C470.315 280.658 476.999 280.871 479.434 281.473C479.316 288.18 487.613 293.223 494.305 291.061C496.17 297.103 504.186 300.053 510.293 297.76C509.686 306.301 521.832 311.119 529.005 306.541C536.533 303.543 533.942 293.723 531.418 290.664C537.776 288.864 541.263 281.076 536.895 276.039C534.238 271.125 525.978 273.719 526.733 267.492C525.6 263.379 519.368 262.222 517.34 260.6C519.856 253.25 510.219 246.441 502.861 248.952C501.122 243.505 494.112 240.186 488.309 242.027C487.924 234.348 477.495 230.16 470.626 233.821C467.317 229.147 460.041 227.553 454.823 230.413C452.765 229.127 450.337 228.264 447.828 228.278V228.278Z" fill="black"/>
    <path fill-rule="evenodd" clip-rule="evenodd" d="M542.587 359.722C542.587 391.961 538.627 411.178 513.254 411.178C495.4 411.178 483.92 384.317 483.92 352.071C483.92 319.831 487.88 293.661 505.733 293.661C523.587 293.661 542.587 327.475 542.587 359.722Z" fill="url(#paint6_radial_913_829)"/>
    <path d="M397.925 276.316C398.675 277.317 400.3 277.478 401.556 276.675C402.811 275.872 403.222 274.409 402.473 273.408C401.724 272.407 400.099 272.246 398.843 273.049C397.587 273.852 397.176 275.315 397.925 276.316Z" fill="url(#paint7_linear_913_829)"/>
    <path d="M419.514 282.672C420.49 283.865 422.607 284.056 424.243 283.099C425.879 282.142 426.414 280.4 425.438 279.207C424.462 278.014 422.345 277.823 420.709 278.78C419.073 279.737 418.538 281.479 419.514 282.672Z" fill="url(#paint8_linear_913_829)"/>
    <path fill-rule="evenodd" clip-rule="evenodd" d="M502.254 291.232C489.597 294.126 485.519 307.115 483.52 317.559C480.056 342.599 478.909 368.94 488.435 393.015C492.624 403.506 502.01 414.654 515.363 413.874C527.865 413.847 539.501 405.334 541.81 393.857C546.148 379.185 545.933 363.65 544.734 348.594C542.092 329.617 535.06 309.99 519.812 296.467C514.889 292.799 508.731 290.02 502.254 291.232ZM542.587 359.722C542.587 391.961 538.627 411.178 513.254 411.178C495.4 411.178 483.92 384.317 483.92 352.07C483.92 319.831 487.88 293.661 505.733 293.661C523.587 293.661 542.587 327.475 542.587 359.722V359.722Z" fill="black"/>
    <path fill-rule="evenodd" clip-rule="evenodd" d="M498.294 299.061C488.502 309.435 488.531 324.067 487.339 337.035C486.362 358.353 486.436 381.45 499.286 400.03C500.818 403.719 505.208 406.025 507.613 401.535C511.559 395.13 508.798 387.335 509.634 380.327C509.538 355.184 509.945 329.925 509.116 304.857C507.525 301.182 502.758 297.617 498.294 299.061V299.061Z" fill="url(#paint9_linear_913_829)"/>
    <path fill-rule="evenodd" clip-rule="evenodd" d="M350.012 335.899C351.662 338.014 351.877 340.704 352.661 343.14C353.224 345.2 354.245 347.143 355.63 348.841C357.036 350.798 358.213 353.131 357.724 355.54C357.421 357.415 356.473 359.332 354.741 360.42C353.246 360.858 352.195 359.441 351.596 358.387C350.271 356.163 350.604 353.549 350.3 351.113C350.1 348.724 350.019 346.322 349.893 343.927C349.493 341.71 348.361 339.431 349.183 337.179C349.294 336.707 349.331 335.954 350.012 335.899V335.899Z" fill="#8A6223"/>
    <path fill-rule="evenodd" clip-rule="evenodd" d="M357.228 370.397C357.48 375.852 356.429 381.443 358.183 386.767C359.486 391.414 360.944 396.068 361.433 400.865C361.714 401.536 360.907 402.856 360.382 401.727C358.761 396.499 356.843 391.291 356.096 385.871C355.681 381.826 356.555 377.686 355.977 373.717C355.77 372.273 357.058 370.938 357.191 369.925L357.199 370.178L357.228 370.397Z" fill="#8A6223"/>
    <path fill-rule="evenodd" clip-rule="evenodd" d="M388.923 345.001C385.163 345.672 382.225 348.115 378.835 349.593C376.614 350.627 374.194 351.188 371.766 351.626C368.931 352.276 365.94 353.412 364.334 355.814C363.246 357.306 362.58 359.222 363.165 361.008C364.112 362.172 365.911 361.912 367.243 361.583C370.13 360.961 372.299 358.99 374.475 357.258C377.103 355.335 379.575 353.234 382.121 351.229C384.305 349.84 387.036 348.936 388.442 346.726C388.687 346.213 389.582 345.563 388.923 345.001Z" fill="#8A6223"/>
    <defs>
        <linearGradient id="paint0_linear_913_829" x1="538.875" y1="323" x2="538.875" y2="648.89" gradientUnits="userSpaceOnUse">
            <stop stop-color="#0F9F2F"/>
            <stop offset="0.645833" stop-color="#0F9F2F" stop-opacity="0.354167"/>
            <stop offset="1" stop-color="#0F9F2F" stop-opacity="0"/>
        </linearGradient>
        <radialGradient id="paint1_radial_913_829" cx="0" cy="0" r="1" gradientUnits="userSpaceOnUse" gradientTransform="translate(474.096 376.883) scale(188.71 118.362)">
            <stop stop-color="#FDFDFD"/>
            <stop offset="1" stop-color="#DCDCDC"/>
        </radialGradient>
        <radialGradient id="paint2_radial_913_829" cx="0" cy="0" r="1" gradientUnits="userSpaceOnUse" gradientTransform="translate(518.079 357.079) scale(202.333 129.358)">
            <stop stop-color="white"/>
            <stop offset="1" stop-color="white" stop-opacity="0"/>
        </radialGradient>
        <radialGradient id="paint3_radial_913_829" cx="0" cy="0" r="1" gradientUnits="userSpaceOnUse" gradientTransform="translate(384.544 316.972) scale(114.466 110.097)">
            <stop stop-color="#C98B2B" stop-opacity="0"/>
            <stop offset="1" stop-color="#C98B2B"/>
        </radialGradient>
        <linearGradient id="paint4_linear_913_829" x1="460.944" y1="465.659" x2="460.944" y2="330.158" gradientUnits="userSpaceOnUse">
            <stop stop-color="#FF0F0F"/>
            <stop offset="1" stop-color="#790000"/>
        </linearGradient>
        <radialGradient id="paint5_radial_913_829" cx="0" cy="0" r="1" gradientUnits="userSpaceOnUse" gradientTransform="translate(429.73 343.873) rotate(26.4822) scale(46.9193 30.1852)">
            <stop stop-color="#FDFDFD"/>
            <stop offset="1" stop-color="#DCDCDC"/>
        </radialGradient>
        <radialGradient id="paint6_radial_913_829" cx="0" cy="0" r="1" gradientUnits="userSpaceOnUse" gradientTransform="translate(483.921 352.415) rotate(89.2968) scale(58.7639 48.309)">
            <stop stop-color="#FDFDFD"/>
            <stop offset="1" stop-color="#DCDCDC"/>
        </radialGradient>
        <linearGradient id="paint7_linear_913_829" x1="398.843" y1="273.047" x2="401.277" y2="276.852" gradientUnits="userSpaceOnUse">
            <stop stop-color="white"/>
            <stop offset="1" stop-color="white" stop-opacity="0"/>
        </linearGradient>
        <linearGradient id="paint8_linear_913_829" x1="420.709" y1="278.777" x2="423.493" y2="283.537" gradientUnits="userSpaceOnUse">
            <stop stop-color="white"/>
            <stop offset="1" stop-color="white" stop-opacity="0"/>
        </linearGradient>
        <linearGradient id="paint9_linear_913_829" x1="505.622" y1="407.804" x2="508.769" y2="354.687" gradientUnits="userSpaceOnUse">
            <stop stop-color="white"/>
            <stop offset="1" stop-color="white" stop-opacity="0"/>
        </linearGradient>
    </defs>
</svg>
