<svg width="624" height="558" viewBox="0 0 624 558" fill="none" xmlns="http://www.w3.org/2000/svg">
<path d="M540.206 303.798C529.62 293.273 514.753 288.004 500.021 287.135C482.691 286.12 465.508 290.87 449.884 298.078C442.393 301.542 435.095 305.592 428.249 310.206C421.403 314.82 415.506 319.75 410.806 326.102C402.175 337.778 399.001 353.854 407.914 366.297C415.382 376.721 428.362 381.956 440.541 384.461C456.425 387.732 473.133 387.597 489.153 385.498C506.144 383.265 522.819 378.301 538.285 370.945C551.028 364.887 564.427 356.471 571.013 343.486C574.041 337.518 575.114 330.569 573.679 324.015C572.245 317.46 568.381 311.424 563.602 306.698C552.203 295.416 535.822 292.122 520.367 290.937C516.3 290.621 512.222 290.441 508.155 290.26C505.817 290.159 503.139 290.746 501.207 292.122C499.739 293.171 499.852 294.502 501.874 294.593C516.752 295.236 532.93 295.777 546.058 303.697C556.835 310.206 565.805 321.95 564.359 335.138C562.947 348.123 552.497 357.78 542.002 364.255C541.64 364.481 541.267 364.707 540.906 364.921C539.708 365.643 541.561 364.56 540.352 365.248C539.675 365.632 538.997 366.004 538.319 366.376C536.568 367.324 534.783 368.215 532.987 369.073C529.394 370.799 526.92 371.859 523.09 373.337C521.373 373.991 519.656 374.623 517.916 375.221C517.441 375.379 516.967 375.548 516.492 375.706C516.436 375.729 514.866 376.236 515.882 375.909C514.933 376.214 513.973 376.507 513.013 376.789C511.251 377.308 509.488 377.793 507.714 378.256C506.743 378.504 505.771 378.741 504.8 378.978C504.314 379.091 503.828 379.203 503.342 379.316C503.297 379.316 501.738 379.655 502.71 379.452C487.82 382.531 473.156 383.456 457.735 381.832C446.009 380.602 433.48 377.522 423.877 369.907C419.324 366.297 415.721 361.695 413.823 356.167C411.541 349.477 412.049 342.29 414.433 335.713C419.437 321.894 431.943 312.699 444.009 305.829C447.443 303.877 450.957 302.027 454.527 300.335C458.097 298.643 460.91 297.469 464.807 296.082C465.598 295.8 466.389 295.529 467.191 295.258C468.75 294.728 466.242 295.54 467.812 295.055C468.298 294.908 468.773 294.762 469.258 294.615C471.19 294.051 473.133 293.555 475.088 293.092C476.692 292.709 474.116 293.273 475.721 292.957C476.218 292.855 476.703 292.754 477.2 292.663C478.025 292.505 478.85 292.37 479.675 292.235C481.923 291.874 482.747 291.772 484.939 291.603C488.566 291.321 491.198 291.31 494.655 291.558C498.112 291.806 501.456 292.302 504.8 293.092C511.33 294.649 517.588 297.187 523.192 300.899C526.005 302.772 528.626 304.915 531.021 307.295C532.953 309.213 542.047 305.626 540.239 303.832L540.206 303.798Z" fill="#959595"/>
<path d="M380.97 494.624C370.136 488.577 356.692 491.849 346.231 497.038C336.289 501.968 326.924 509.673 320.383 518.653C313.841 527.633 310.384 538.61 312.712 549.497C314.836 559.47 322.235 566.927 331.612 570.503C340.989 574.079 351.947 574.496 362.137 573.538C374.508 572.376 386.732 569.521 398.492 565.539C410.015 561.647 421.188 556.446 431.514 550.004C440.428 544.443 449.782 536.636 450.189 525.298C450.55 515.472 444.947 505.973 437.039 500.366C427.3 493.462 414.839 491.781 403.169 492.086C400.006 492.164 396.843 492.39 393.691 492.683C391.928 492.853 388.551 493.891 388.087 495.921C387.59 498.065 391.138 497.952 392.279 497.85C392.923 497.794 393.567 497.738 394.21 497.681C394.346 497.681 396.131 497.534 395.397 497.591C396.854 497.501 398.323 497.433 399.78 497.399C402.457 497.343 405.135 497.399 407.812 497.602C408.027 497.625 408.569 497.67 409.134 497.738C409.778 497.805 410.411 497.895 411.043 497.986C412.388 498.178 413.732 498.426 415.054 498.719C417.551 499.283 419.98 500.062 422.318 501.088C430.576 504.687 437.253 511.715 439.58 520.515C440.688 524.7 440.642 529.021 439.129 533.105C437.479 537.538 434.248 540.912 430.644 543.766C428.667 545.334 427.402 546.157 425.12 547.568C422.838 548.978 420.319 550.433 417.856 551.764C416.681 552.396 415.506 553.017 414.308 553.626C412.987 554.303 412.704 554.438 411.145 555.16C408.66 556.333 406.14 557.428 403.587 558.466C401.034 559.503 398.3 560.519 395.623 561.444C395.487 561.489 394.674 561.76 395.487 561.489C395.171 561.591 394.854 561.703 394.538 561.805C393.905 562.008 393.273 562.211 392.629 562.414C391.273 562.831 389.917 563.238 388.551 563.621C385.907 564.366 383.241 565.043 380.552 565.652C379.897 565.798 379.253 565.945 378.598 566.081C378.27 566.148 377.942 566.216 377.615 566.284C378.451 566.114 377.615 566.284 377.468 566.306C375.999 566.588 374.519 566.859 373.039 567.107C370.339 567.547 367.628 567.931 364.917 568.224C363.855 568.337 362.804 568.416 361.742 568.517C361.019 568.585 362.499 568.483 361.776 568.517C361.505 568.529 361.234 568.551 360.974 568.562C360.364 568.596 359.765 568.619 359.155 568.641C356.85 568.709 354.546 568.675 352.241 568.529C351.97 568.506 351.699 568.495 351.428 568.472C351.315 568.472 350.625 568.393 351.303 568.472C350.761 568.416 350.23 568.359 349.699 568.292C348.569 568.156 347.44 567.987 346.321 567.773C338.413 566.306 330.437 562.493 325.783 555.183C320.507 546.88 320.97 535.88 324.664 527.081C328.358 518.281 335.916 510.632 343.836 504.788C344.073 504.608 344.322 504.439 344.559 504.258C344.604 504.224 345.214 503.807 344.762 504.112C345.259 503.773 345.768 503.435 346.276 503.107C347.361 502.408 348.479 501.731 349.609 501.099C350.14 500.795 350.682 500.513 351.224 500.231C351.326 500.174 352.173 499.757 351.699 499.983C351.224 500.208 352.083 499.802 352.184 499.757C353.359 499.215 354.557 498.708 355.766 498.256C356.048 498.155 356.331 498.053 356.624 497.952C356.432 498.02 355.687 498.29 356.624 497.952C357.2 497.783 357.765 497.602 358.353 497.455C358.94 497.309 359.505 497.173 360.081 497.049C359.076 497.264 359.844 497.094 360.059 497.072C360.488 497.004 360.929 496.937 361.358 496.88C361.64 496.846 361.934 496.812 362.228 496.779C362.386 496.756 363.143 496.7 362.284 496.756C362.86 496.711 363.437 496.711 364.001 496.711C364.566 496.711 365.142 496.733 365.707 496.779C365.515 496.767 365.063 496.688 365.888 496.812C366.238 496.869 366.589 496.914 366.939 496.97C369.176 497.354 371.04 498.076 373.118 499.238C375.062 500.321 378.304 499.317 380.055 498.268C381.467 497.422 382.947 495.729 380.97 494.635V494.624Z" fill="#959595"/>
<path d="M600.273 484.944C577.182 484.392 550.701 486.682 534.128 504.89C527.146 512.55 523.203 522.218 523.824 532.642C524.412 542.615 529.97 551.381 538.669 556.277C547.176 561.06 557.49 562.121 567.093 561.827C578.967 561.466 590.817 559.47 602.42 557.044C614.666 554.483 626.675 551.009 638.436 546.767C643.711 544.871 649.021 542.897 654.071 540.449C658.782 538.159 663.493 535.384 666.939 531.368C670.384 527.351 672.237 522.602 671.977 517.266C671.74 512.482 669.627 507.88 666.758 504.112C660.002 495.199 648.626 491.758 638.04 489.976C635.126 489.48 632.199 489.096 629.262 488.701C627.138 488.408 623.93 489.558 622.8 491.454C621.535 493.563 623.896 494.409 625.534 494.624C626.427 494.748 626.054 494.692 625.862 494.669C626.178 494.714 626.506 494.759 626.822 494.804C627.466 494.895 628.099 494.985 628.743 495.075C630.019 495.267 631.307 495.459 632.584 495.684C635.205 496.136 637.814 496.677 640.379 497.377C644.886 498.617 649.541 500.479 653.201 503.435C659.562 508.579 664.442 517.807 661.042 525.964C660.725 526.731 660.262 527.543 659.788 528.276C659.053 529.416 658.703 529.833 657.878 530.668C657.551 531.007 657.2 531.334 656.85 531.65C656.647 531.83 656.444 532.011 656.229 532.191C656.15 532.259 655.495 532.8 655.867 532.496C656.24 532.191 655.562 532.721 655.483 532.778C655.257 532.936 655.031 533.105 654.805 533.263C654.286 533.624 653.766 533.962 653.224 534.289C652.749 534.583 652.264 534.865 651.766 535.147C651.586 535.248 651.394 535.35 651.213 535.451C650.569 535.824 651.857 535.136 651.19 535.463C650.106 535.993 649.032 536.523 647.937 537.008C645.598 538.046 643.214 539.005 640.831 539.93C638.131 540.991 635.408 541.995 632.674 542.965C632.425 543.055 632.177 543.145 631.928 543.224C632.651 542.976 631.815 543.258 631.714 543.292C631.047 543.518 630.381 543.743 629.714 543.969C628.291 544.443 626.878 544.905 625.444 545.345C619.987 547.06 614.485 548.583 608.927 549.925C606.193 550.591 603.448 551.2 600.691 551.776C600.002 551.922 599.313 552.058 598.624 552.193C598.274 552.261 597.935 552.328 597.585 552.396C597.472 552.419 596.602 552.588 597.359 552.441C595.98 552.701 594.591 552.949 593.201 553.186C587.745 554.122 582.265 554.912 576.752 555.465C575.656 555.577 574.561 555.668 573.465 555.747C572.979 555.781 572.493 555.814 572.007 555.837C571.725 555.848 571.454 555.871 571.171 555.882C571.058 555.882 569.68 555.927 570.742 555.905C568.517 555.961 566.28 555.961 564.054 555.848C563.015 555.792 561.987 555.724 560.947 555.623C560.405 555.566 559.852 555.51 559.309 555.442C558.609 555.352 559.885 555.532 559.196 555.431C558.857 555.374 558.518 555.329 558.191 555.273C556.078 554.912 553.977 554.438 551.932 553.784C550.859 553.445 550.667 553.378 549.515 552.881C548.498 552.441 547.504 551.967 546.532 551.426C544.736 550.433 543.278 549.418 541.821 548.087C538.59 545.131 536.24 541.51 534.907 537.347C532.252 528.987 533.597 519.545 538.127 512.076C540.533 508.116 543.357 505.116 547.029 502.115C547.108 502.058 547.673 501.607 547.165 502.002C547.391 501.821 547.628 501.652 547.854 501.483C548.317 501.145 548.791 500.806 549.266 500.49C550.226 499.836 551.198 499.227 552.203 498.64C552.7 498.347 553.209 498.065 553.717 497.783C552.881 498.245 554.372 497.455 554.553 497.365C555.592 496.846 556.654 496.361 557.728 495.91C558.801 495.459 559.885 495.053 560.97 494.646C559.84 495.064 561.524 494.466 561.75 494.398C562.45 494.173 563.15 493.97 563.862 493.766C565.139 493.405 566.438 493.078 567.737 492.796C568.426 492.638 569.127 492.492 569.816 492.368C569.07 492.503 569.951 492.345 570.053 492.334C570.494 492.266 570.923 492.187 571.364 492.119C574.256 491.657 577.17 491.341 580.096 491.127C583.022 490.912 584.988 490.845 587.937 490.822C590.885 490.799 593.642 490.822 596.489 490.901C598.703 490.957 601.731 490.19 602.951 488.148C604.171 486.106 601.934 485.012 600.217 484.978L600.273 484.944Z" fill="#959595"/>
<path d="M482.86 398.269C484.318 404.609 488.724 409.584 492.395 414.751C495.638 419.331 499.196 426.089 496.27 431.662C494.937 434.212 492.712 436.073 490.452 438.036C487.628 440.484 484.804 442.921 481.968 445.358L445.082 477.228C443.433 478.649 444.212 480.646 446.144 481.176C448.528 481.831 451.273 480.883 453.092 479.315C464.965 469.06 476.828 458.805 488.701 448.55L497.603 440.856C500.224 438.589 502.891 436.31 504.811 433.388C508.912 427.15 507.014 419.941 503.534 413.928C500.055 407.915 494.327 402.793 492.678 395.64C492.181 393.486 488.566 393.7 487.018 394.163C485.368 394.648 482.341 396.047 482.86 398.269Z" fill="#959595"/>
<path d="M506.607 436.66C525.191 448.832 544.747 459.505 565.037 468.564C567.24 469.545 570.03 469.071 572.019 467.751C573.318 466.894 575.001 464.514 572.776 463.521C552.486 454.462 532.941 443.79 514.346 431.617C512.414 430.353 509.127 431.267 507.364 432.429C505.794 433.467 504.664 435.385 506.607 436.66Z" fill="#959595"/>
</svg>
