<svg width="624" height="558" viewBox="0 0 624 558" fill="none" xmlns="http://www.w3.org/2000/svg">
<path d="M228.882 535.205C239.643 554.116 258.189 566.977 279.765 572.044C303.652 577.662 328.961 571.359 349.126 558.277C365.856 547.44 381.497 528.724 382.786 508.604C383.338 499.866 381.611 490.979 376.217 483.868C369.952 475.633 358.617 473.453 348.648 475.15C326.75 478.912 313.389 500.675 317.642 521.176C321.445 539.491 339.208 553.441 356.616 559.239C378.91 566.688 402.438 564.099 423.622 554.405C444.455 544.875 461.257 528.127 473.077 509.22C485.919 488.689 492.406 464.887 496.771 441.495C499.039 429.291 500.91 417.009 502.556 404.718C504.202 392.426 505.106 379.218 500.53 367.519C496.791 357.949 489.175 349.25 479.242 345.309C465.761 339.992 450.654 343.632 438.839 351.107C420.945 362.441 411.701 384.263 410.406 404.301C407.963 441.604 430.207 478.991 464.605 495.63C505.691 515.514 557.274 505.948 594.018 481.174C630.869 456.337 651.266 413.493 652.81 370.761C654.236 331.533 640.737 286.423 605.138 264.053C596.635 258.701 587.373 255.114 577.358 253.347C571.684 252.353 564.411 254.896 560.598 259.121C557.122 262.994 558.642 267.074 563.807 268C565.482 268.303 568.412 268.915 569.241 269.148C570.184 269.4 573.175 270.441 574.821 271.098C578.46 272.549 582.741 274.708 585.515 276.551C592.68 281.249 598.909 287.212 604.233 293.787C615.226 307.397 622.234 324.108 625.813 340.977C633.459 377.035 626.877 416.528 605.551 447.417C603.338 450.623 600.38 454.321 597.263 457.787C595.744 459.476 594.192 461.114 592.581 462.702C591.853 463.409 591.124 464.116 590.395 464.823C589.901 465.295 589.403 465.74 588.909 466.211C589.746 465.469 589.172 466.001 588.645 466.422C585.125 469.377 581.482 472.18 577.65 474.726C576.667 475.399 575.654 476.047 574.639 476.667C576.374 475.584 574.397 476.795 573.727 477.172C571.505 478.455 569.248 479.66 566.931 480.816C564.938 481.811 562.913 482.754 560.855 483.645C562.94 482.752 561.125 483.516 560.121 483.919C558.845 484.425 557.567 484.903 556.259 485.357C554.164 486.116 552.034 486.797 549.9 487.423C548.944 487.714 546.144 488.42 548.67 487.79C547.516 488.069 546.337 488.377 545.181 488.63C543.009 489.124 540.833 489.564 538.622 489.926C537.435 490.127 536.245 490.3 535.083 490.472C534.584 490.538 534.058 490.606 533.559 490.672C531.317 490.982 534.452 490.629 533.059 490.711C528.463 490.987 523.9 491.315 519.302 491.212C518.798 491.197 518.293 491.182 517.788 491.167C516.049 491.113 519.223 491.272 517.482 491.191C516.47 491.134 515.456 491.051 514.44 490.94C512.073 490.718 509.726 490.413 507.402 490.025C505.22 489.68 503.088 489.25 500.952 488.766C498.216 488.139 497.789 488.037 494.975 487.118C487.025 484.567 478.922 480.754 472.676 476.364C459.092 466.856 448.569 453.886 441.958 439.041C435.447 424.404 432.731 408.551 435.223 392.754C436.512 384.5 438.752 377.689 442.996 370.369C445.216 366.54 447.395 363.607 451.005 360.373C449.854 361.411 451.799 359.797 452.142 359.526C452.699 359.131 453.256 358.735 453.813 358.34C453.626 358.463 452.198 359.17 453.389 358.644C453.849 358.445 454.303 358.166 454.733 357.943C456.913 356.826 454.823 358.018 454.436 358.075C454.742 358.051 456.253 357.337 454.729 357.889C453.205 358.441 455.257 357.848 455.557 357.744C453.846 357.687 457.169 357.239 455.557 357.744C456.062 357.759 456.59 357.717 457.121 357.703C455.444 357.725 457.63 357.772 458.255 357.886C458.879 358 459.531 358.112 460.132 358.282C459.903 358.218 459.157 357.978 460.109 358.338C461.319 358.785 462.475 359.264 463.612 359.853C466.821 361.527 470.091 364.713 472.488 367.831C478.614 375.725 479.994 386.264 479.651 395.881C479.26 407.045 477.164 418.233 475.449 429.284C473.735 440.334 471.836 451.182 469.262 461.974C466.688 472.767 463.606 482.786 459.257 492.714C457.286 497.228 455.109 501.624 452.644 505.906C451.509 507.863 450.345 509.796 449.12 511.679C448.045 513.334 446.386 515.739 445.727 516.63C442.814 520.54 439.633 524.255 436.238 527.743C434.657 529.356 433.046 530.944 431.372 532.456C432.523 531.418 430.61 533.084 430.269 533.382C429.219 534.276 428.138 535.119 427.028 535.963C425.259 537.32 423.402 538.629 421.539 539.858C421.113 540.135 420.659 540.414 420.232 540.691C420.633 540.443 422.16 539.566 420.177 540.695C419.132 541.291 418.087 541.887 417.012 542.458C415.937 543.03 414.86 543.574 413.781 544.091C412.837 544.544 410.964 545.286 413.055 544.473C410.638 545.419 408.192 546.341 405.705 547.104C405.212 547.25 404.692 547.399 404.2 547.546C404.311 547.537 406.289 547.058 404.938 547.326C403.864 547.545 402.822 547.815 401.746 548.007C400.836 548.187 399.895 548.314 398.983 548.466C398.431 548.563 396.734 548.695 399.261 548.445C398.649 548.492 398.009 548.542 397.398 548.59C395.367 548.747 393.328 548.798 391.283 548.767C390.751 548.754 387.713 548.557 389.799 548.747C388.699 548.643 387.602 548.566 386.528 548.433C377.941 547.394 371.635 545.474 363.684 541.108C357.604 537.761 350.86 532.001 346.737 525.766C342.614 519.531 340.271 512.426 340.939 505.196C341.325 501.157 342.143 498.005 343.641 494.962C344.004 494.23 344.394 493.495 344.787 492.787C345.057 492.306 346.468 490.3 345.401 491.683C345.885 491.077 346.397 490.468 346.912 489.886C347.274 489.506 347.668 489.177 348.002 488.799C347.514 489.352 346.627 489.827 347.692 489.121C348.97 488.29 349.159 488.194 347.606 489.101C344.931 489.959 349.426 488.038 347.606 489.101C348.944 488.671 346.072 489.518 346.209 489.48C347.994 489.043 345.393 489.788 345.43 489.541C345.428 489.514 346.519 489.51 346.602 489.504C347.749 489.496 345.219 488.988 346.296 489.528C346.762 489.762 349.219 490.411 347.458 489.708C348.15 489.979 348.845 490.277 349.54 490.576C349.771 490.666 350.884 491.311 349.707 490.563C350.002 490.756 350.326 490.975 350.596 491.198C351.369 491.788 352.089 492.409 352.759 493.115C354.827 495.23 356.008 497.468 357.143 500.901C358.277 504.335 358.698 507.227 358.682 510.615C358.649 519.178 356.448 525.065 352.038 532.397C349.759 536.204 347.952 538.512 344.646 542.047C343.844 542.895 343.015 543.745 342.156 544.57C341.791 544.924 339.987 546.554 341.219 545.483C339.437 547.03 337.562 548.477 335.626 549.846C334.671 550.516 333.658 551.164 332.675 551.837C331.557 552.574 332.968 551.651 333.101 551.56C332.51 551.876 331.924 552.247 331.333 552.564C329.268 553.727 327.138 554.76 324.946 555.716C327.001 554.797 325.269 555.555 324.235 555.933C323.12 556.345 322.003 556.73 320.855 557.09C320.145 557.308 316.736 558.088 319.683 557.48C318.527 557.732 317.373 558.011 316.188 558.239C315.002 558.467 313.84 558.638 312.653 558.839C310.412 559.176 313.909 558.796 311.651 558.917C309.255 559.049 306.883 559.125 304.502 559.094C302.401 559.068 303.745 559.072 304.196 559.118C303.689 559.076 303.182 559.034 302.675 558.992C301.49 558.868 300.305 558.743 299.144 558.563C296.793 558.204 294.464 557.762 292.153 557.183C291.069 556.915 289.089 556.284 287.16 555.594C284.943 554.791 282.745 553.879 280.595 552.854C276.703 551.017 273.183 548.934 269.794 546.38C262.782 541.128 256.678 534.614 252.397 527.064C249.772 522.446 242.642 523.245 238.29 524.857C235.353 525.952 226.089 530.601 228.715 535.218L228.882 535.205Z" fill="#959595"/>
<path d="M559.146 323.191C547.114 303.403 534.618 283.787 523.042 263.748C522.167 262.218 521.222 260.503 520.789 258.884C520.797 258.992 520.786 257.774 520.786 257.774C520.795 257.882 520.519 259.014 520.741 257.913C520.821 257.5 521.036 257.023 521.231 256.656C520.476 258.096 521.394 256.589 521.453 256.639C521.541 256.686 519.412 258.45 521.483 256.663C521.85 256.337 522.216 256.01 522.585 255.711C522.953 255.411 523.349 255.109 523.746 254.808C523.613 254.899 522.067 255.886 523.244 255.199C525.465 253.888 527.619 252.448 529.838 251.11C539.035 245.6 548.518 240.528 558.266 235.977C559.022 235.62 559.805 235.261 560.561 234.904C562.505 233.995 559.018 235.566 560.966 234.71C562.319 234.118 563.672 233.525 565.025 232.932C567.733 231.773 570.471 230.639 573.213 229.559C579.104 227.231 585.065 225.088 591.095 223.102C595.924 221.507 601.991 216.403 599.993 210.87C597.996 205.336 589.957 205.23 585.181 206.794C561.69 214.527 538.933 224.857 517.84 237.524C508.377 243.217 495.073 250.97 496.445 263.568C497.165 270.312 501.779 276.021 505.213 281.686L537.819 335.361C539.037 337.352 542.94 338.24 545.019 338.349C548.082 338.517 551.847 337.628 554.436 336.018C559.374 332.952 562.233 328.341 559.086 323.141L559.146 323.191Z" fill="#959595"/>
</svg>
