<svg width="624" height="558" viewBox="0 0 624 558" fill="none" xmlns="http://www.w3.org/2000/svg">
<path d="M401.209 357.345C408.675 344.657 416.881 332.288 426.917 321.464C431.916 316.07 437.346 311.052 443.274 306.688C449.201 302.325 454.988 299.029 461.459 296.285C461.647 296.201 462.425 295.883 462.266 295.948C461.881 296.107 462.632 295.808 462.707 295.77C462.894 295.695 463.072 295.63 463.26 295.555C464.114 295.227 464.986 294.909 465.849 294.609C466.28 294.459 466.721 294.31 467.152 294.169C467.321 294.113 468.287 293.813 467.931 293.916C467.434 294.066 468.221 293.832 468.334 293.795C468.522 293.738 468.709 293.682 468.897 293.626C469.403 293.486 469.9 293.345 470.407 293.205C471.232 292.989 472.057 292.783 472.883 292.587C473.371 292.474 472.817 292.605 472.742 292.615C472.93 292.577 473.127 292.531 473.314 292.493C473.83 292.39 474.337 292.287 474.852 292.194C475.687 292.034 476.522 291.903 477.366 291.772C477.366 291.772 478.004 291.679 477.638 291.725C477.225 291.782 478.022 291.679 478.107 291.669C478.557 291.613 479.017 291.557 479.467 291.51C483.031 291.135 486.154 291.061 489.802 291.285C493.451 291.51 496.827 292.044 500.269 292.811C514.535 296.014 527.59 303.336 538.976 312.334C551.159 321.96 561.617 333.515 571.793 345.172C573.04 346.605 574.297 348.047 575.545 349.479C575.873 349.863 577.27 349.732 577.608 349.704C578.658 349.62 579.793 349.358 580.778 348.983C581.482 348.721 584.145 347.785 583.226 346.727C572.75 334.666 562.208 322.541 549.931 312.241C537.654 301.941 524.87 294.45 510.061 290.48C494.483 286.304 478.21 287.605 463.054 292.858C448.357 297.952 435.133 306.66 424.056 317.503C413.064 328.252 404.07 340.865 396.088 353.946C395.103 355.556 394.137 357.186 393.181 358.815C392.449 360.06 396.069 359.611 396.426 359.545C397.861 359.264 400.384 358.768 401.209 357.354V357.345Z" fill="#959595"/>
<path d="M596.732 345.482L583.395 364.836C582.963 365.463 582.382 366.072 581.997 366.727C581.791 367.074 581.932 366.727 582.054 366.681C582.223 366.615 582.363 366.521 582.532 366.456C582.701 366.39 583.498 366.381 583.564 366.325C583.32 366.531 581.913 365.529 581.669 365.37C580.9 364.883 580.14 364.386 579.381 363.881C576.473 361.933 573.66 359.845 570.958 357.617C567.929 355.117 565.059 352.457 562.349 349.611C560.942 348.131 558.578 347.972 556.787 348.927C555.521 349.601 553.42 351.699 554.892 353.253C560.492 359.134 566.682 364.424 573.463 368.918C575.17 370.042 576.933 371.306 578.884 371.952C581.707 372.889 584.764 372.467 587.212 370.782C588.985 369.555 590.11 367.579 591.301 365.847L603.578 348.028C604.619 346.521 604.413 344.583 602.481 343.937C600.671 343.328 597.876 343.787 596.713 345.482H596.732Z" fill="#959595"/>
<path d="M613.436 394.78C620.714 408.563 627.223 422.88 631.152 438.002C634.857 452.263 636.151 467.207 633.516 481.767C631.012 495.635 624.953 508.463 615.142 518.669C612.873 521.028 610.425 523.21 607.836 525.27C606.523 526.319 605.173 527.321 603.803 528.295C603.137 528.763 602.472 529.222 601.796 529.671C601.29 530.008 601.534 529.849 601.14 530.102C600.718 530.373 600.296 530.635 599.874 530.907C597.004 532.686 594.031 534.325 591.001 535.823C590.607 536.019 590.213 536.207 589.819 536.394C589.651 536.478 589.482 536.553 589.313 536.637C589.904 536.357 589.313 536.637 589.219 536.675C588.422 537.04 587.625 537.396 586.818 537.752C585.271 538.426 583.704 539.063 582.138 539.671C580.234 540.402 578.311 541.094 576.379 541.741C575.901 541.9 576.314 541.769 576.407 541.741C576.201 541.806 575.985 541.881 575.779 541.947C575.291 542.106 574.804 542.256 574.316 542.415C573.341 542.724 572.356 543.014 571.371 543.304C567.507 544.437 563.596 545.42 559.675 546.319C558.747 546.535 557.818 546.741 556.881 546.937C556.374 547.05 555.877 547.153 555.371 547.256C554.864 547.359 555.296 547.274 555.389 547.256C555.099 547.312 554.817 547.377 554.526 547.434C552.51 547.846 550.494 548.229 548.468 548.604C544.491 549.334 540.505 550.009 536.519 550.655C534.559 550.973 532.608 551.291 530.648 551.6C529.222 551.825 526.408 552.499 525.958 554.157C525.508 555.814 528.575 555.664 529.382 555.542C546.123 552.855 562.892 550.055 579.015 544.681C592.952 540.046 606.486 533.229 617.543 523.454C628.498 513.781 636.348 501.403 640.128 487.273C644.001 472.834 643.842 457.478 640.916 442.881C637.764 427.141 631.556 412.196 624.334 397.917C623.433 396.138 622.514 394.368 621.576 392.599C620.817 391.157 618.313 391.578 617.028 391.943C616.324 392.149 612.695 393.404 613.417 394.78H613.436Z" fill="#959595"/>
<path d="M524.317 570.805C521.109 563.492 517.883 556.179 514.685 548.866C514.366 548.145 513.935 547.34 513.86 546.544C513.85 546.432 513.897 545.87 513.86 546.067C513.813 546.347 513.916 545.907 513.963 545.879C513.522 546.141 514.122 546.067 514.01 545.87C513.297 546.422 514.028 545.907 514.01 545.87C514.141 545.776 514.282 545.683 514.404 545.57C514.732 545.28 514.272 545.636 514.207 545.673C514.347 545.589 514.497 545.505 514.647 545.43C515.398 545.027 516.176 544.671 516.945 544.306C518.652 543.51 520.378 542.761 522.122 542.059C522.526 541.9 522.929 541.741 523.332 541.581C523.492 541.516 524.486 541.141 523.904 541.357C524.786 541.029 525.677 540.72 526.568 540.411C530.61 539.044 534.737 537.93 538.92 537.059C540.599 536.712 542.737 534.99 542.221 533.07C541.668 531.01 539.023 530.916 537.363 531.263C529.213 532.967 521.241 535.617 513.681 539.109C510.286 540.683 505.531 542.902 505.569 547.312C505.587 549.484 506.713 551.441 507.566 553.379L516.167 572.977C516.983 574.822 519.168 575.346 521.025 574.784C522.404 574.372 525.161 572.715 524.326 570.796L524.317 570.805Z" fill="#959595"/>
<path d="M467.471 554.709C451.949 553.763 436.464 551.844 421.458 547.246C408.403 543.239 395.891 536.956 385.48 528.07C375.164 519.259 367.192 508.098 363.149 495.101C358.675 480.672 358.797 465.222 361.527 450.475C364.481 434.547 370.277 419.35 376.336 404.387C377.086 402.543 377.837 400.689 378.587 398.844C378.84 398.226 378.221 397.608 377.752 397.374C377.002 396.99 375.867 396.962 375.06 397.084C373.288 397.337 371.159 398.076 370.427 399.865C364.218 415.09 357.972 430.418 354.38 446.514C351.013 461.608 350.066 477.61 353.733 492.742C357.062 506.506 364.519 518.81 374.807 528.501C385.096 538.192 397.317 545.065 410.41 549.709C425.819 555.177 442.017 557.677 458.27 558.951C460.277 559.11 462.285 559.241 464.292 559.372C466.074 559.485 468.653 558.717 469.675 557.144C470.697 555.571 468.756 554.803 467.462 554.728L467.471 554.709Z" fill="#959595"/>
<path d="M362.502 384.527C370.427 385.585 378.362 386.634 386.287 387.702C386.672 387.748 387.047 387.805 387.431 387.87C387.853 387.945 387.46 387.87 387.384 387.842C387.535 387.889 387.741 388.011 387.9 388.02C388.003 388.104 388.238 388.057 387.9 388.02C387.76 387.917 387.882 387.776 387.91 388.011C387.919 388.104 388.135 388.301 388.182 388.385C388.013 388.104 388.163 388.32 388.21 388.507C388.266 388.75 388.416 389.387 388.416 389.368C388.388 389.097 388.426 389.64 388.426 389.621C388.426 389.79 388.426 389.958 388.426 390.127C388.407 390.951 388.313 391.775 388.219 392.599C387.825 396.325 387.234 400.033 386.437 403.694C385.546 407.805 384.383 411.841 382.976 415.811C381.382 420.305 389.542 420.408 390.798 416.85C393.593 408.975 395.535 400.782 396.445 392.477C396.641 390.651 396.867 388.778 396.52 386.953C396.126 384.864 394.653 383.291 392.73 382.449C390.808 381.606 388.566 381.531 386.531 381.259L365.288 378.422C363.346 378.16 360.823 379.059 359.989 380.95C359.154 382.842 360.748 384.284 362.512 384.518L362.502 384.527Z" fill="#959595"/>
</svg>
