<?xml version="1.0" encoding="UTF-8" standalone="no"?>
<!-- Created with Inkscape (http://www.inkscape.org/) -->

<svg
   width="1080"
   height="1080"
   viewBox="0 0 1080 1080"
   version="1.1"
   id="svg5"
   xml:space="preserve"
   xmlns="http://www.w3.org/2000/svg"
   xmlns:svg="http://www.w3.org/2000/svg"><defs
     id="defs2" /><g
     id="layer1"><g
       id="g330"
       transform="matrix(10.847436,0,0,10.869565,-7007.809,-7497.0217)"><path
         style="fill:#ffffff;stroke-width:0.0874486"
         id="path730"
         d="m 741.61214,739.32141 a 45.881916,45.788506 0 0 1 -45.8522,45.7885 45.881916,45.788506 0 0 1 -45.91159,-45.72918 45.881916,45.788506 0 0 1 45.79272,-45.84774 45.881916,45.788506 0 0 1 45.97092,45.66979" /><path
         style="fill:#0252b3"
         d="m 649.72119,737.02845 c 0,-3.08163 2.61277,-5.40967 4.24238,-3.78006 1.78935,1.78936 2.62735,1.37546 2.00826,-0.99192 -0.37033,-1.41614 0.068,-2.6103 1.28475,-3.5 1.72656,-1.26249 1.67917,-1.35046 -0.72763,-1.35046 -1.77298,0 -2.74518,-0.65269 -3.12273,-2.09645 -0.71149,-2.72074 0.24098,-5.14592 1.78789,-4.55232 0.79519,0.30515 1.06827,-0.30051 0.79054,-1.75334 -0.2395,-1.25287 0.26402,-2.79077 1.15613,-3.53115 0.86922,-0.7214 1.58041,-1.84325 1.58041,-2.49302 0,-0.64976 1.64258,-2.73216 3.65018,-4.62755 2.00759,-1.89539 3.33104,-2.88367 2.94098,-2.19617 -0.85717,1.51082 -0.0933,1.58908 2.41389,0.2473 1.25242,-0.67028 2.07903,-0.67028 2.49328,0 1.07852,1.74508 2.66184,1.08273 2.04648,-0.85612 -0.34479,-1.08634 0.0625,-2.40027 0.97995,-3.16173 1.07965,-0.89603 1.22264,-1.51753 0.45786,-1.99019 -2.21109,-1.36653 14.40459,-6.98926 20.65387,-6.98926 1.11183,0 1.36351,4.24548 1.36351,23 v 23 h -23 -23 z m 17.8,-3.82244 c 0.93333,-0.93333 1.46667,-0.93333 2.4,0 1.85889,1.85889 3.00441,1.41941 2.27669,-0.87344 -0.44647,-1.40671 -0.0662,-2.52193 1.18261,-3.4682 1.74711,-1.32383 1.72466,-1.39637 -0.44152,-1.42656 -1.40977,-0.0196 -2.63267,-0.89194 -3.19894,-2.2818 l -0.91672,-2.25 -0.66769,2.25 c -0.46822,1.5778 -1.43684,2.25 -3.24219,2.25 -2.4068,0 -2.45419,0.088 -0.72763,1.35046 1.21673,0.8897 1.65507,2.08386 1.28475,3.5 -0.62422,2.387 0.22155,2.77863 2.05064,0.94954 z m 19.50736,0.10736 c 1.72854,1.72854 2.55425,1.27945 1.94328,-1.0569 -0.37033,-1.41614 0.068,-2.6103 1.28475,-3.5 1.72656,-1.26249 1.67917,-1.35046 -0.72763,-1.35046 -1.80412,0 -2.77553,-0.67327 -3.24632,-2.25 l -0.67182,-2.25 -1.09763,2.25 c -0.60369,1.2375 -1.98395,2.25 -3.06725,2.25 -1.71872,0 -1.79481,0.21065 -0.59724,1.65362 0.75481,0.9095 1.22585,2.51856 1.04676,3.57569 -0.2856,1.68584 -0.0573,1.77847 1.85742,0.75374 1.57875,-0.84493 2.48549,-0.86588 3.27568,-0.0757 z m -15.6711,-12.80438 c 1.54044,1.26927 1.63235,1.14354 1.00505,-1.37494 -0.50392,-2.02313 -0.27858,-2.93 0.83413,-3.35699 2.20092,-0.84457 1.87409,-2.37105 -0.50766,-2.37105 -1.16921,0 -2.42153,-0.9555 -2.94894,-2.25 l -0.91672,-2.25 -0.66769,2.25 c -0.46502,1.56704 -1.43818,2.25 -3.20605,2.25 -2.44357,0 -2.47319,0.072 -0.79323,1.92834 1.11927,1.23678 1.50808,2.67517 1.08416,4.01083 -0.60825,1.91642 -0.4583,1.99015 1.88025,0.92464 2.01291,-0.91715 2.89369,-0.86742 4.2367,0.23917 z m 15.78071,-0.32277 c 2.08914,0.95188 2.29934,0.85096 1.84515,-0.88586 -0.28875,-1.1042 0.26477,-2.81908 1.26764,-3.92723 1.72672,-1.90801 1.70246,-1.96712 -0.80738,-1.96712 -1.79955,0 -2.80351,-0.68024 -3.29651,-2.23358 l -0.70891,-2.23357 -0.82626,2.23357 c -0.48374,1.30767 -1.66869,2.23358 -2.85848,2.23358 -2.38175,0 -2.70858,1.52648 -0.50766,2.37105 1.11271,0.42699 1.33805,1.33386 0.83413,3.35699 -0.6273,2.51848 -0.5354,2.64421 1.00505,1.37494 1.29367,-1.06594 2.25425,-1.14243 4.05323,-0.32277 z m -2.9153,-13.78291 c 0.41425,-0.67028 1.24086,-0.67028 2.49328,0 2.62266,1.4036 2.89063,1.28117 2.28284,-1.04303 -0.34055,-1.30228 0.14774,-2.56268 1.34362,-3.4682 1.77781,-1.34615 1.73732,-1.42417 -0.75478,-1.45427 -1.84976,-0.0223 -2.83328,-0.70133 -3.30519,-2.2818 l -0.67182,-2.25 -1.09763,2.25 c -0.60369,1.2375 -1.9986,2.25 -3.09979,2.25 -1.88681,0 -1.90543,0.1069 -0.32308,1.85538 0.94417,1.04329 1.40287,2.57523 1.048,3.5 -0.67862,1.76846 1.05783,2.30318 2.08455,0.64192 z"
         id="path334" /><path
         style="fill:#d60227"
         d="m 685.49385,783.91488 c -5.1314,-1.30111 -12.67309,-4.65247 -16.77266,-7.4534 -1.04027,-0.71074 7.23493,-1.01997 27,-1.00895 l 28.5,0.0159 -4,2.47509 c -10.27986,6.3609 -23.93252,8.70847 -34.72734,5.97136 z m -30.62403,-24.25887 c -1.0406,-2.0625 -2.20507,-4.7625 -2.58771,-6 l -0.6957,-2.25 h 44.13478 44.13477 l -0.69569,2.25 c -0.38264,1.2375 -1.54711,3.9375 -2.58772,6 l -1.89201,3.75 h -38.95935 -38.95935 z m 40.85137,-26.25 v -6 h 21.94098 c 12.06754,0 22.14109,0.3375 22.38567,0.75 0.24458,0.4125 0.76336,3.1125 1.15286,6 l 0.70817,5.25 h -23.09384 -23.09384 z m 0,-24 v -6 h 14.29179 14.29179 l 4.01367,4.25 c 7.98048,8.45037 9.15302,7.75 -12.97481,7.75 h -19.62244 z"
         id="path332" /></g></g></svg>
