<?xml version="1.0" encoding="UTF-8" standalone="no"?>
<!-- Created with Inkscape (http://www.inkscape.org/) -->

<svg
   width="1080"
   height="1080"
   viewBox="0 0 1080 1080"
   version="1.1"
   id="svg5"
   xml:space="preserve"
   xmlns="http://www.w3.org/2000/svg"
   xmlns:svg="http://www.w3.org/2000/svg"><defs
     id="defs2" /><g
     id="layer1"><g
       id="g810"
       transform="matrix(10.878472,0,0,10.880638,-3562.4268,-3362.9203)"><path
         style="fill:#f9d344"
         d="m 367.13243,403.61824 c -8.47014,-1.99965 -16.83955,-7.007 -23.54077,-14.08427 -7.72517,-8.15868 -11.53912,-16.80808 -12.30837,-27.91327 -0.93611,-13.51412 3.1094,-24.41377 12.79751,-34.47982 11.97171,-12.43874 27.50513,-16.97358 44.46204,-12.98029 33.58778,7.9098 45.98662,50.33032 22.24044,76.09189 -10.36289,11.2424 -28.77046,16.87875 -43.65085,13.36576 z"
         id="path816" /><path
         style="fill:#d7092a"
         d="m 353.01151,397.75544 c -20.20896,-12.69691 -27.64796,-39.26301 -16.89595,-60.3387 2.76954,-5.42874 11.97558,-15.06662 17.46366,-18.28285 7.98666,-4.68049 7.43229,-7.62577 7.43229,39.48681 0,47.50423 0.60565,44.5415 -8,39.13474 z m 40,-39.13474 c 0,-28.40606 0.33656,-42 1.03984,-42 2.68121,0 9.91845,4.79829 15.19336,10.0732 10.27765,10.27765 15.33225,25.1593 13.057,38.44212 -1.65307,9.65056 -6.25782,18.6123 -13.057,25.41148 -5.27491,5.27491 -12.51215,10.0732 -15.19336,10.0732 -0.70328,0 -1.03984,-13.59394 -1.03984,-42 z"
         id="path814" /><path
         style="fill:#0353b2"
         d="m 353.01151,397.75544 c -20.20896,-12.69691 -27.64796,-39.26301 -16.89595,-60.3387 2.76954,-5.42874 11.97558,-15.06662 17.46366,-18.28285 7.98666,-4.68049 7.43229,-7.62577 7.43229,39.48681 0,47.50423 0.60565,44.5415 -8,39.13474 z"
         id="path812" /></g></g></svg>
