<svg width="238" height="131" viewBox="0 0 238 131" fill="none" xmlns="http://www.w3.org/2000/svg">
	<path d="M0.8602 130.779H237.995C237.995 130.779 238.604 28.4176 224.583 14.9718C224.583 14.9718 234.945 70.2811 224.583 94.1151C224.583 94.1151 225.013 65.0871 219.922 54.0887C219.922 54.0887 223.67 84.0322 206.295 97.1729C206.295 97.1729 204.469 52.5628 218.489 22.9184C218.489 22.9184 201.114 45.2265 197.766 79.7537C197.766 79.7537 200.816 55.3094 195.635 39.1169C195.635 39.1169 197.462 78.533 187.1 96.8677C187.1 96.8677 181.006 49.8102 184.659 29.034C184.659 29.034 176.852 59.3366 176.345 72.8842C176.297 74.2365 176.315 75.4273 176.428 76.3967C177.646 87.09 175.21 48.2843 168.502 35.1436C168.502 35.1436 174.9 81.2856 164.843 91.6737C164.843 91.6737 166.669 65.7035 159.967 53.4783C159.967 53.4783 164.234 74.8648 151.127 91.6737C151.127 91.6737 148.996 40.948 158.445 10.3941C158.445 10.3941 144.12 39.4221 144.12 67.2293C144.12 67.2293 141.679 46.4532 132.845 33.3125C132.845 33.3125 144.424 79.1493 131.323 92.284C131.323 92.284 133.454 64.4767 126.142 47.3687C126.142 47.3687 117.607 90.4529 110.295 97.1729C110.295 97.1729 105.115 47.0635 113.041 21.0873C113.041 21.0873 97.1942 62.0353 95.9707 97.4781C95.9707 97.4781 93.2251 58.6723 94.7531 51.3361C94.7531 51.3361 87.6563 81.1659 88.4442 91.0992C88.486 91.6617 88.5576 92.1584 88.6591 92.5892C90.4855 100.536 87.1371 34.5332 82.2607 24.1451C82.2607 24.1451 82.5651 88.3107 74.3343 97.7832C74.3343 97.7832 63.6683 79.4485 74.3343 41.8635C74.3343 41.8635 62.1403 61.1138 63.6683 77.0011C63.6683 77.0011 63.6683 14.6666 59.4007 0C59.4007 0 58.4875 84.3374 53.0023 93.8099C53.0023 93.8099 50.2568 40.0324 46.9083 35.1436C46.9083 35.1436 46.2995 88.9211 42.6408 94.7255C42.6408 94.7255 29.838 57.7508 40.51 22.0029C40.51 22.0029 22.222 64.4767 26.794 92.8944C26.794 92.8944 17.0412 73.6441 24.6632 33.9228C24.6632 33.9228 14.9104 62.9508 13.9972 88.9211C13.084 114.891 10.3384 75.4752 10.3384 75.4752C10.3384 75.4752 13.3884 31.7806 25.8808 12.2252C25.8808 12.2252 6.67964 40.6428 2.41205 88.6159C-1.85554 136.589 0.8602 130.779 0.8602 130.779Z" fill="url(#paint0_linear_293_402)"/>
	<defs>
		<linearGradient id="paint0_linear_293_402" x1="119.004" y1="0" x2="119.004" y2="131" gradientUnits="userSpaceOnUse">
			<stop stop-color="#0F9F2F"/>
			<stop offset="0.75" stop-color="#0F9F2F" stop-opacity="0.4"/>
			<stop offset="1" stop-color="#0F9F2F" stop-opacity="0"/>
		</linearGradient>
	</defs>
</svg>