<svg width="370" height="322" viewBox="0 0 370 322" fill="none" xmlns="http://www.w3.org/2000/svg">
    <g clip-path="url(#clip0_293_428)">
        <path d="M152.533 193.436C140.338 204.042 93.3437 257.211 87.0922 263.555C82.5687 268.139 54.4983 300.434 44.7293 311.823C40.5437 316.7 37.4179 322.982 31.1741 317.875C26.8195 314.312 24.4541 308.867 20.0842 305.303C15.3994 301.486 10.1539 298.13 5.7917 293.937C1.54466 289.866 0.408025 288.2 4.31714 283.453C11.2752 274.998 19.1088 267.118 26.4739 259.008C41.2656 242.726 56.0957 226.468 70.9565 210.248C114.448 162.77 158.301 115.638 202.308 68.6361C207.753 62.8377 213.405 56.686 215.31 48.9676C217.222 41.2492 213.828 31.5955 206.178 29.4374L247.289 3.58653C248.718 2.68797 250.285 1.75869 251.959 1.94301C253.549 2.11965 254.839 3.26397 256.014 4.35453C260.015 8.07165 264.016 11.7964 267.995 15.5443C302.232 47.7772 334.741 81.8534 365.316 117.581C366.253 118.679 367.236 119.885 367.305 121.329C367.412 123.548 365.385 125.215 363.557 126.474C335.556 145.766 306.172 163.062 275.713 178.176C265.79 183.099 265.429 176.548 269.423 168.737C275.536 156.779 279.814 143.224 278.992 129.661C278.171 116.099 271.735 103.104 264.185 91.4764C263.125 89.8406 261.958 88.1664 260.222 87.2755C255.2 84.7027 153.017 193.021 152.533 193.436V193.436Z" fill="#754C24" stroke="black" stroke-width="3.84" stroke-miterlimit="10"/>
        <path d="M215.309 48.9676C217.222 41.2492 213.827 31.5955 206.178 29.4374L247.289 3.58653C248.717 2.68797 250.284 1.75869 251.958 1.94301C253.548 2.11965 254.838 3.26397 256.013 4.35453C260.015 8.07165 264.016 11.7964 267.994 15.5443C302.232 47.7772 334.741 81.8534 365.315 117.581C366.252 118.679 367.235 119.885 367.304 121.329C367.412 123.548 365.384 125.215 363.556 126.474C335.555 145.766 306.171 163.062 275.712 178.176C265.79 183.099 265.429 176.548 269.423 168.737C275.536 156.779 279.814 143.224 278.992 129.661C278.17 116.099 271.734 103.104 264.185 91.4764C263.125 89.8406 261.958 88.1664 260.222 87.2755C255.622 84.9254 213.958 54.4358 215.309 48.9676Z" fill="url(#paint0_linear_293_428)" stroke="black" stroke-width="3.84" stroke-miterlimit="10"/>
    </g>
    <defs>
        <linearGradient id="paint0_linear_293_428" x1="359.102" y1="91.2" x2="197.968" y2="90.7008" gradientUnits="userSpaceOnUse">
            <stop stop-color="#E6E6E6"/>
            <stop offset="0.15" stop-color="#D5D5D5"/>
            <stop offset="0.46" stop-color="#A9A9A9"/>
            <stop offset="0.88" stop-color="#636363"/>
            <stop offset="1" stop-color="#4D4D4D"/>
        </linearGradient>
        <clipPath id="clip0_293_428">
            <rect width="369.239" height="321.692" fill="white" transform="translate(0.000488281)"/>
        </clipPath>
    </defs>
</svg>
