<svg width="243" height="262" viewBox="0 0 243 262" fill="none" xmlns="http://www.w3.org/2000/svg">
	<g clip-path="url(#clip0_293_397)">
		<path d="M170.337 173.737L165.898 171.764L162.38 170.195C161.621 169.855 160.758 169.661 160.048 169.2C158.837 168.408 160.072 168.287 160.887 168.189C161.565 168.109 162.243 167.987 162.921 167.882C164.518 167.64 166.124 167.389 167.722 167.13C171.265 166.556 174.808 165.941 178.335 165.246C180.796 164.753 183.273 164.243 185.686 163.532C186.389 163.321 188.656 162.893 188.882 161.979C189.504 159.505 172.193 145.879 178.375 127.296C184.557 108.714 219.791 4.36673 120.27 2.03784C20.7489 4.35056 55.9831 108.706 62.1568 127.28C68.3385 145.863 51.028 159.488 51.6494 161.963C51.7947 162.545 52.8922 162.844 53.3522 163.022C58.5898 165.003 64.4648 165.715 69.9525 166.645C72.882 167.138 75.8195 167.607 78.7651 168.044C79.8062 168.198 80.8391 168.351 81.8802 168.505C82.437 168.586 83.3651 168.521 82.8567 169.176C82.437 169.718 81.3072 169.88 80.7019 170.146L77.1269 171.739L72.6641 173.729C-13.9043 179.05 3.43841 259.978 3.43841 259.978H239.563C239.563 259.978 256.905 179.05 170.329 173.737H170.337Z" fill="url(#paint0_linear_293_397)" stroke="black" stroke-width="5" stroke-miterlimit="10"/>
		<path d="M90.3457 157.063L82.8647 169.184L72.6721 173.737C75.9244 180.117 79.5478 186.335 83.3247 192.416C89.7646 202.783 96.8341 213.571 106.155 221.592C108.076 223.242 110.134 224.786 112.401 225.927C115.71 227.592 121.133 227.9 124.708 227.156C126.782 226.727 128.792 225.514 130.527 224.35C135.167 221.236 139.057 217.007 142.616 212.73C150.299 203.495 156.739 193.209 162.67 182.777C164.365 179.794 166.027 176.794 167.593 173.737L157.4 169.184L149.919 157.063" fill="#E0B97E"/>
		<path d="M168.545 81.0341C167.399 81.1959 166.181 81.0341 165.043 80.9128C156.303 79.9586 147.515 77.5246 139.267 74.5326C134.909 72.9558 130.551 71.1283 126.653 68.6053C125.12 67.6107 123.627 66.5028 122.384 65.1443C121.843 64.5459 121.133 62.9852 120.463 62.6941C119.14 62.12 118.252 64.7642 117.445 65.5729C111.215 71.8641 101.135 74.7671 92.8878 77.1365C88.5218 78.3899 84.0913 79.4573 79.6124 80.2497C77.1268 80.6945 74.2458 81.3899 71.6956 81.026C65.9254 80.2012 58.0974 80.6136 58.0974 96.7137C58.0974 112.814 69.6377 114.884 69.6377 114.884C71.284 145.442 102.193 173.106 120.116 173.106C138.04 173.106 168.949 145.442 170.595 114.884C170.595 114.884 182.135 112.822 182.135 96.7137C182.135 80.6055 174.307 80.1931 168.537 81.026L168.545 81.0341Z" fill="#E0B97E"/>
		<path d="M90.3457 157.063L82.8647 169.184L72.6721 173.737C75.9244 180.117 79.5479 186.335 83.3247 192.416C89.7646 202.783 96.8341 213.571 106.155 221.592C108.076 223.242 110.134 224.786 112.401 225.927C115.71 227.592 121.133 227.9 124.708 227.156C126.782 226.727 128.792 225.514 130.527 224.35C135.167 221.236 139.057 217.007 142.616 212.73C150.299 203.495 156.739 193.209 162.67 182.777C164.365 179.794 166.027 176.794 167.593 173.737L157.4 169.184L149.919 157.063M168.545 81.0341C167.399 81.1959 166.181 81.0341 165.043 80.9128C156.303 79.9586 147.515 77.5246 139.267 74.5326C134.909 72.9558 130.551 71.1283 126.653 68.6053C125.12 67.6107 123.627 66.5028 122.384 65.1443C121.843 64.5459 121.133 62.9852 120.463 62.6941C119.14 62.12 118.252 64.7642 117.445 65.5729C111.215 71.8641 101.135 74.7671 92.8878 77.1365C88.5218 78.3899 84.0913 79.4573 79.6124 80.2497C77.1268 80.6945 74.2458 81.3899 71.6956 81.026C65.9254 80.2012 58.0974 80.6136 58.0974 96.7137C58.0974 112.814 69.6377 114.884 69.6377 114.884C71.284 145.442 102.193 173.106 120.116 173.106C138.04 173.106 168.949 145.442 170.595 114.884C170.595 114.884 182.135 112.822 182.135 96.7137C182.135 80.6055 174.307 80.1931 168.537 81.026L168.545 81.0341Z" stroke="black" stroke-width="2" stroke-miterlimit="10"/>
	</g>
	<defs>
		<linearGradient id="paint0_linear_293_397" x1="17.2061" y1="197.462" x2="87.2349" y2="167.16" gradientUnits="userSpaceOnUse">
			<stop stop-color="#808080"/>
			<stop offset="0.4" stop-color="#646464"/>
			<stop offset="1" stop-color="#333333"/>
		</linearGradient>
		<clipPath id="clip0_293_397">
			<rect width="243" height="262" fill="white" transform="translate(0.000488281)"/>
		</clipPath>
	</defs>
</svg>
